<?xml version="1.0" standalone="no"?>
<!DOCTYPE svg PUBLIC "-//W3C//DTD SVG 20010904//EN"
 "http://www.w3.org/TR/2001/REC-SVG-20010904/DTD/svg10.dtd">
<svg version="1.0" xmlns="http://www.w3.org/2000/svg"
 width="640.000000pt" height="640.000000pt" viewBox="0 0 640.000000 640.000000"
 preserveAspectRatio="xMidYMid meet">
<metadata>
Created by potrace 1.14, written by Peter Selinger 2001-2017
</metadata>
<g transform="translate(0.000000,640.000000) scale(0.100000,-0.100000)"
fill="#000000" stroke="none">
<path d="M3095 5603 c-81 -199 -195 -477 -205 -498 -5 -11 -34 -83 -65 -160
-31 -77 -62 -153 -70 -170 -7 -16 -23 -55 -35 -85 -11 -30 -29 -73 -39 -95
-10 -22 -22 -51 -26 -65 -4 -14 -21 -53 -36 -88 -16 -34 -29 -65 -29 -68 0 -3
-7 -22 -16 -42 -27 -62 -30 -70 -125 -302 -50 -124 -109 -268 -131 -320 -22
-52 -57 -140 -79 -195 -23 -55 -47 -113 -54 -130 -8 -16 -39 -93 -70 -170 -32
-77 -63 -153 -70 -170 -7 -16 -22 -55 -34 -85 -12 -30 -26 -64 -31 -75 -5 -11
-48 -114 -95 -230 -47 -115 -91 -221 -97 -235 -6 -14 -12 -27 -13 -30 -2 -6
-13 -36 -25 -65 -4 -11 -12 -31 -18 -45 -6 -14 -34 -81 -62 -150 -28 -69 -58
-139 -66 -157 -8 -17 -14 -37 -14 -45 0 -8 -6 -20 -12 -27 -7 -8 2 -5 20 5 17
10 32 22 32 26 0 4 4 8 9 8 9 0 165 102 204 133 9 8 17 19 17 25 0 6 4 12 8
14 13 5 69 120 92 188 12 34 45 108 74 164 29 55 59 119 66 141 7 22 16 45 21
50 4 6 17 44 28 84 11 41 23 76 26 79 4 4 50 -90 76 -156 5 -12 17 -25 26 -28
63 -20 144 -65 180 -101 23 -24 51 -43 61 -43 24 0 173 -49 186 -60 10 -10
-32 -86 -66 -117 -35 -33 -69 -42 -186 -49 -124 -7 -148 -18 -158 -71 -4 -21
-8 -47 -10 -58 -2 -11 -7 -69 -10 -130 -6 -104 -5 -115 26 -212 35 -114 44
-248 19 -294 -7 -13 -11 -25 -10 -27 2 -2 -2 -15 -7 -30 -6 -15 -25 -65 -42
-112 -18 -47 -36 -94 -41 -105 -19 -42 -139 -370 -139 -380 0 -14 920 -14 921
0 6 54 2 128 -6 135 -5 4 -44 10 -85 13 -139 11 -294 62 -360 120 -122 107
-139 285 -47 507 5 14 11 30 13 35 1 6 24 66 52 135 27 69 78 198 113 287 59
149 66 162 91 165 16 3 28 2 28 -1 0 -3 32 -6 70 -6 39 0 70 3 70 7 0 4 6 5
14 2 23 -9 106 -10 106 -1 0 5 5 5 11 1 14 -8 176 -7 189 1 6 4 10 3 10 -2 0
-7 124 -9 155 -3 6 1 12 2 15 1 16 -6 140 -5 140 1 0 4 6 5 14 2 23 -9 106
-10 106 -1 0 5 5 5 11 2 12 -8 218 -10 225 -2 3 3 12 3 19 1 21 -8 105 -10
105 -2 0 4 6 5 14 2 20 -8 106 -10 106 -3 0 4 18 3 39 -1 22 -4 45 -4 52 1 7
4 20 4 28 0 9 -4 32 -6 52 -5 l37 3 41 -102 c23 -56 46 -111 51 -122 5 -11 20
-48 34 -82 52 -126 78 -189 91 -218 49 -110 120 -288 132 -330 19 -65 12 -160
-15 -203 -39 -65 -154 -132 -270 -157 -12 -3 -30 -7 -40 -9 -18 -4 -60 -9
-157 -20 -22 -3 -63 -6 -91 -7 l-50 -2 0 -76 1 -76 1140 0 1140 0 3 75 3 76
-28 0 c-169 2 -305 66 -395 185 -46 62 -73 118 -158 329 -34 85 -65 160 -68
165 -4 6 -7 15 -9 20 -2 11 -86 213 -121 295 -6 14 -70 169 -142 345 -72 176
-137 334 -145 350 -7 17 -23 54 -35 84 -11 30 -30 75 -42 100 -11 25 -24 57
-29 71 -6 21 -41 106 -82 200 -5 14 -11 27 -12 30 -2 5 -7 19 -48 115 -26 63
-82 199 -174 425 -30 74 -61 149 -68 165 -8 17 -30 71 -50 120 -44 108 -61
147 -86 203 -10 23 -19 49 -19 57 0 8 -4 15 -8 15 -5 0 -9 6 -9 13 -1 11 -88
230 -113 282 -8 17 -29 68 -35 85 -1 3 -9 23 -19 45 -35 84 -59 141 -66 160
-5 11 -15 36 -23 55 -16 36 -39 91 -42 100 -1 3 -7 18 -13 33 -7 16 -12 30
-12 33 0 2 -9 23 -19 47 -11 23 -43 98 -71 167 -60 146 -137 332 -155 375 -7
17 -15 38 -19 48 -5 16 -37 17 -474 17 l-469 0 -48 -117z m465 -1360 c8 -21
14 -40 15 -43 0 -3 9 -23 19 -45 10 -22 22 -49 26 -60 4 -11 15 -36 23 -55 17
-39 115 -276 184 -445 25 -60 73 -175 105 -255 33 -80 75 -183 94 -230 19 -47
40 -98 48 -115 8 -16 36 -82 61 -145 49 -120 58 -143 93 -225 12 -27 23 -57
24 -65 2 -8 7 -18 13 -22 21 -15 -16 -20 -115 -17 -8 0 -33 0 -55 0 -22 0 -47
0 -55 0 -8 0 -42 0 -75 0 -33 0 -67 0 -75 1 -8 0 -19 -1 -25 -2 -5 -1 -236 -2
-511 -1 l-502 1 69 178 c38 97 74 185 79 194 6 10 10 23 10 29 0 6 6 25 14 42
7 18 19 48 26 67 7 19 19 49 26 65 7 17 47 120 89 230 42 110 80 209 85 220 5
11 37 92 71 180 33 88 76 198 94 245 18 47 46 119 61 160 15 41 31 80 34 85 4
6 10 22 14 38 9 37 19 34 36 -10z"/>
<path d="M204 1981 c-79 -36 -125 -105 -123 -183 4 -100 65 -195 153 -236 61
-29 124 -37 318 -41 23 -1 26 -5 22 -28 -2 -16 -5 -57 -8 -93 -5 -75 -24 -160
-37 -160 -5 0 -9 -7 -9 -15 0 -8 -25 -38 -55 -67 -36 -34 -61 -68 -71 -98 -9
-25 -19 -52 -22 -60 -7 -19 -6 -16 -20 -67 -7 -23 -10 -57 -6 -75 3 -18 7 -40
8 -48 7 -45 26 -69 61 -76 20 -3 38 -4 42 -1 3 3 -1 25 -9 49 -9 27 -12 54 -7
73 4 17 10 46 13 65 9 53 16 58 107 91 105 37 135 51 178 83 19 14 39 26 44
26 5 0 7 -36 4 -86 l-5 -86 64 -63 c35 -35 64 -68 64 -73 0 -19 39 -43 71 -43
95 -2 119 3 119 22 0 21 -34 56 -64 65 -22 7 -96 83 -96 98 0 5 15 32 33 60
17 28 33 54 33 58 1 5 2 9 4 11 3 4 12 42 13 60 1 20 37 22 102 7 76 -17 110
-22 172 -24 34 -1 65 -5 68 -8 4 -3 -8 -32 -26 -63 -18 -31 -32 -70 -31 -85 1
-30 56 -126 100 -172 22 -24 34 -28 78 -28 29 0 55 4 59 10 7 12 -30 50 -49
50 -21 0 -42 40 -45 87 -2 37 3 47 37 85 21 24 46 52 55 63 47 59 57 69 56 55
-1 -8 2 -35 6 -59 7 -36 18 -54 63 -95 31 -28 79 -75 108 -103 50 -51 69 -59
127 -54 29 2 19 27 -25 63 -25 21 -62 68 -88 114 -44 77 -45 81 -45 165 l0 87
40 36 c22 20 51 41 65 47 39 16 122 18 145 3 17 -11 25 -11 49 2 16 8 40 26
54 39 l25 25 -23 50 c-13 27 -23 57 -23 65 0 9 -18 34 -40 55 -29 29 -38 46
-34 61 5 18 2 20 -19 16 -21 -4 -24 -1 -24 24 0 37 -8 36 -56 -5 -21 -18 -55
-37 -74 -41 -19 -5 -42 -11 -50 -13 -24 -7 -164 -8 -180 -1 -8 4 -39 10 -69
14 -30 4 -62 9 -73 11 -10 2 -27 6 -39 9 -11 2 -28 6 -37 9 -9 3 -33 7 -52 10
-19 3 -68 12 -108 19 -104 20 -399 15 -507 -9 -16 -4 -43 -8 -60 -10 -279 -30
-362 -21 -426 46 -37 39 -65 115 -47 126 5 3 7 11 5 18 -7 17 24 51 64 71 46
24 56 39 41 63 -14 20 -46 21 -88 3z"/>
</g>
</svg>
