<?xml version="1.0" encoding="utf-8"?><svg width="505" height="442" viewBox="0 0 505 442" xmlns="http://www.w3.org/2000/svg" xmlns:xlink="http://www.w3.org/1999/xlink"><view id="vector0" viewBox="283 112 110 110"/><svg width="110" height="110" viewBox="0 0 110 110" x="283" y="112" xmlns="http://www.w3.org/2000/svg"><path d="M93.887 32.441c-8.885 0-16.114 7.229-16.114 16.114 0 7.781 5.545 14.291 12.891 15.789v32.765a6.453 6.453 0 0 1-6.445 6.446 6.453 6.453 0 0 1-6.446-6.446V84.22c0-7.108-5.782-12.89-12.89-12.89-7.108 0-12.89 5.782-12.89 12.89v12.89a6.453 6.453 0 0 1-6.446 6.446c-3.61 0-6.66-2.952-6.66-6.446V70.943c3.892-.932 7.403-3.497 9.437-7.056 0 0 20.49-36.067 21.238-37.381a13.431 13.431 0 0 0 1.766-6.652c0-7.22-5.736-13.122-12.89-13.396V3.223a3.223 3.223 0 0 0-6.446 0v12.89a3.223 3.223 0 0 0 6.446 0v-3.201c3.598.266 6.445 3.277 6.445 6.942a6.98 6.98 0 0 1-.921 3.461l-12.51 22.017H19.876L7.363 23.308a6.974 6.974 0 0 1-.918-3.454c0-3.665 2.847-6.676 6.446-6.942v3.201a3.223 3.223 0 0 0 6.445 0V3.223a3.223 3.223 0 0 0-6.445 0v3.235C5.737 6.732 0 12.634 0 19.854c0 2.329.61 4.63 1.763 6.645l21.245 37.395c2.031 3.554 5.541 6.118 9.433 7.049v26.166c0 7.167 6.017 12.891 13.106 12.891 7.108 0 12.89-5.783 12.89-12.89V84.218a6.453 6.453 0 0 1 6.446-6.446 6.453 6.453 0 0 1 6.445 6.446v12.89c0 7.108 5.783 12.891 12.89 12.891 7.109 0 12.891-5.783 12.891-12.89V64.343C104.455 62.847 110 56.336 110 48.554c0-8.884-7.228-16.113-16.113-16.113zM35.664 64.883c-2.791 0-5.629-1.683-7.056-4.18l-5.07-8.926H47.79l-5.067 8.919c-1.431 2.504-4.268 4.187-7.06 4.187zm58.223-6.66c-5.331 0-9.668-4.337-9.668-9.668 0-5.331 4.337-9.668 9.668-9.668 5.33 0 9.668 4.337 9.668 9.668 0 5.33-4.337 9.668-9.668 9.668z"/><path d="M93.887 51.777a3.223 3.223 0 1 0 0-6.445 3.223 3.223 0 0 0 0 6.445z"/></svg><view id="vector1" viewBox="0 222 100 110"/><svg width="100" height="110" viewBox="0 0 100 110" y="222" xmlns="http://www.w3.org/2000/svg"><path d="M96.047 1.781a3.223 3.223 0 0 0-5.159-.84c-35.642 35.563-24.78 24.717-37.656 37.594L6.385 78.175c-8.053 6.813-8.563 19.082-1.104 26.54 7.484 7.484 19.741 6.933 26.541-1.103l35.895-42.421c2.617-3.094 2.95-7.466 1.093-10.89l4.835-4.834 2.279 2.278a3.222 3.222 0 0 0 4.55.008l9.672-9.609a31.462 31.462 0 0 0 5.9-36.363zM26.902 99.448c-4.394 5.193-12.258 5.514-17.064.71-4.81-4.812-4.477-12.675.71-17.064l10.123-8.565 14.796 14.796-8.565 10.123zm12.743-15.06L25.608 70.35l4.938-4.177L43.823 79.45l-4.178 4.937zm8.356-9.875L35.483 61.996l4.937-4.178 11.758 11.758-4.177 4.937zm14.795-17.486l-6.44 7.612L45.358 53.64l9.875-8.355 7.382 7.382a3.241 3.241 0 0 1 .181 4.36zm1.734-11.56l-4.558-4.558 4.558-4.558 4.558 4.558-4.558 4.558zm21.066-11.888l-7.386 7.337-9.12-9.12L91.963 8.974a25.017 25.017 0 0 1-6.367 24.605z"/></svg><view id="vector10" viewBox="100 222 110 110"/><svg width="110" height="110" viewBox="0 0 110 110" x="100" y="222" xmlns="http://www.w3.org/2000/svg"><path d="M100.332 45.117h-3.223V18.784c3.752-1.33 6.446-4.914 6.446-9.116 0-5.33-4.337-9.668-9.668-9.668H68.106c-5.331 0-9.668 4.337-9.668 9.668 0 4.202 2.693 7.786 6.445 9.116v26.333H45.117V18.784c3.752-1.33 6.446-4.914 6.446-9.116 0-5.33-4.338-9.668-9.669-9.668h-25.78c-5.332 0-9.669 4.337-9.669 9.668 0 4.202 2.694 7.786 6.446 9.116v26.333H9.668C4.338 45.117 0 49.454 0 54.785v45.547C0 105.663 4.337 110 9.668 110h90.664c5.331 0 9.668-4.337 9.668-9.668V54.785c0-5.33-4.337-9.668-9.668-9.668zM68.106 6.445h25.78a3.226 3.226 0 0 1 3.223 3.223 3.226 3.226 0 0 1-3.222 3.223 3.223 3.223 0 0 0-3.223 3.222v16.114h-9.668a3.223 3.223 0 0 0 0 6.445h9.668v6.445H71.328V16.113a3.223 3.223 0 0 0-3.222-3.222 3.226 3.226 0 0 1-3.223-3.223 3.226 3.226 0 0 1 3.223-3.223zm12.89 58.008h9.668v16.543c0 5.331-4.337 9.668-9.668 9.668-5.33 0-9.668-4.337-9.668-9.668V51.563h19.336v6.445h-9.668a3.223 3.223 0 0 0 0 6.445zM16.113 6.445h25.782a3.226 3.226 0 0 1 3.222 3.223 3.226 3.226 0 0 1-3.222 3.223 3.223 3.223 0 0 0-3.223 3.222v16.114h-9.668a3.223 3.223 0 0 0 0 6.445h9.668v6.445H19.336V16.113a3.223 3.223 0 0 0-3.223-3.222 3.226 3.226 0 0 1-3.222-3.223 3.226 3.226 0 0 1 3.222-3.223zm12.89 58.008h9.669v16.543c0 5.331-4.337 9.668-9.668 9.668-5.331 0-9.668-4.337-9.668-9.668V51.563h19.336v6.445h-9.668a3.223 3.223 0 0 0 0 6.445zm74.552 35.879a3.227 3.227 0 0 1-3.223 3.223H9.668a3.227 3.227 0 0 1-3.223-3.223V54.785a3.226 3.226 0 0 1 3.223-3.222h3.223v29.433c0 8.885 7.228 16.113 16.113 16.113s16.113-7.228 16.113-16.113V51.563h19.766v29.433c0 8.885 7.228 16.113 16.113 16.113S97.11 89.881 97.11 80.996V51.563h3.223a3.227 3.227 0 0 1 3.223 3.222v45.547z"/></svg><view id="vector11" viewBox="210 222 110 110"/><svg width="110" height="110" viewBox="0 0 110 110" x="210" y="222" xmlns="http://www.w3.org/2000/svg"><path d="M109.057.944a3.223 3.223 0 0 0-4.558 0L89.424 16.019c-3.593-1.712-8.031-1.084-11.002 1.887l-7.228 7.228c-3.593-1.712-8.032-1.084-11.002 1.887L28.812 58.4a31.608 31.608 0 0 0-11.907-2.309h-.01c-5.33 0-9.667 4.337-9.667 9.668 0 5.33 4.337 9.667 9.667 9.667 1.187 0 2.364.178 3.493.513L7.78 88.547 5.501 86.27a3.222 3.222 0 1 0-4.557 4.557l18.23 18.23a3.222 3.222 0 1 0 4.558-4.557l-2.28-2.279L34.06 89.612a12.28 12.28 0 0 1 .513 3.493 9.604 9.604 0 0 0 2.831 6.836 9.607 9.607 0 0 0 6.836 2.831c5.33 0 9.667-4.337 9.667-9.667a31.612 31.612 0 0 0-2.309-11.916L82.98 49.808a9.67 9.67 0 0 0 1.891-11.006l7.224-7.224a9.67 9.67 0 0 0 1.891-11.006L109.056 5.5a3.222 3.222 0 0 0 .001-4.557zM16.896 97.662l-4.558-4.557 13.673-13.673 4.558 4.558-13.673 13.672zm27.345-1.335a3.218 3.218 0 0 1-3.222-3.222c0-5.045-2.095-9.875-5.501-13.28l-5.341-5.342c-3.398-3.398-8.225-5.501-13.28-5.501a3.226 3.226 0 0 1-3.223-3.222 3.226 3.226 0 0 1 3.223-3.222h.008c6.733 0 13.065 2.624 17.83 7.388l5.34 5.34c4.766 4.767 7.39 11.102 7.388 17.839a3.226 3.226 0 0 1-3.222 3.222zM57.914 65.76l-2.279-2.28a3.222 3.222 0 1 0-4.557 4.558l2.278 2.28-4.943 4.943a32.062 32.062 0 0 0-3.78-4.552l-5.341-5.341a32.026 32.026 0 0 0-4.552-3.78L48.8 47.53l13.67 13.672-4.557 4.558zm20.508-20.51l-2.278 2.28-2.28-2.279a3.223 3.223 0 0 0-4.557 4.558l2.28 2.279-4.559 4.557-13.672-13.673L64.75 31.578a3.227 3.227 0 0 1 4.557 0l9.115 9.115a3.22 3.22 0 0 1 0 4.558zm9.115-18.23l-6.836 6.837-4.557-4.557 6.836-6.837a3.227 3.227 0 0 1 4.557 0 3.22 3.22 0 0 1 0 4.558z"/></svg><view id="vector12" viewBox="0 0 142 112"/><svg width="142" height="112" viewBox="0 0 142 112" xmlns="http://www.w3.org/2000/svg"><mask id="ea" maskUnits="userSpaceOnUse" x="0" y="0" width="142" height="112"><path d="M0 0h142v112H0z"/><path d="M72.649 52.163V41.93a2.558 2.558 0 0 0-5.117 0v10.233a2.558 2.558 0 1 0 5.117 0zM18.08 40.224a34.558 34.558 0 0 0-5.99 13.578 2.558 2.558 0 0 0 2.504 3.083 2.558 2.558 0 0 0 2.5-2.047 29.573 29.573 0 0 1 5.098-11.588 14.99 14.99 0 0 1 11.243-6.436 2.558 2.558 0 0 0 0-5.117 19.938 19.938 0 0 0-15.354 8.527zm107.55 38.504a34.555 34.555 0 0 1-5.991 13.578 19.938 19.938 0 0 1-15.354 8.526 2.558 2.558 0 1 1 0-5.116 14.992 14.992 0 0 0 11.243-6.436 29.573 29.573 0 0 0 5.098-11.588 2.558 2.558 0 0 1 3.026-1.993 2.558 2.558 0 0 1 1.978 3.029z"/><path fill-rule="evenodd" clip-rule="evenodd" d="M34.507 111C18.729 111 9.816 94.784 6.715 87.813-1.895 68.514-.72 48.448 9.862 34.14c1.622-2.193 3.416-3.863 4.497-4.869.405-.377.71-.66.867-.844a30 30 0 0 1 11.387-5.973c3.336-.913 7.631-1.015 8.823-.916 3.134.273 10.178 3.072 12.609 7.015.438.71.79 1.47 1.051 2.264a13.448 13.448 0 0 1-1.215 10.534c5.185-.957 11.977-3.387 11.977-9.654V6.116A5.116 5.116 0 0 1 64.974 1h11.33a5.116 5.116 0 0 1 5.117 5.116v25.582c0 6.267 6.792 8.697 11.977 9.654a13.448 13.448 0 0 1-1.215-10.534c.26-.794.613-1.554 1.052-2.264 2.43-3.942 9.475-6.742 12.609-7.015 1.191-.099 5.486.003 8.823.916a30.002 30.002 0 0 1 11.386 5.973c.157.183.462.467.867.844 1.081 1.006 2.876 2.676 4.497 4.869 10.583 14.307 11.757 34.373 3.147 53.672-3.101 6.97-12.013 23.187-27.792 23.187a26.665 26.665 0 0 1-9.897-1.845c-.283-.103-1.018-.541-1.888-1.117-5.024-2.715-14.397-10.17-9.563-28.738a23.91 23.91 0 0 1 6.938-7.974 68.731 68.731 0 0 1-9.432-3.934l-.304-.154c-3.312-1.639-7.252-2.709-11.237-3.033-4.565.144-9.152 1.22-12.813 3.033l-.305.154a68.736 68.736 0 0 1-9.432 3.934 23.911 23.911 0 0 1 6.938 7.974c4.693 18.025-4.002 25.577-9.111 28.487-1.028.697-1.939 1.25-2.262 1.368A26.664 26.664 0 0 1 34.507 111zm55.437-13.363c.18.23.366.474.56.729 1.53 2.011 3.554 4.668 7.056 6.036 3.298 1.289 6.473 1.5 9.212 1.481 12.765 0 20.424-14.09 23.118-20.15 7.851-17.598 6.884-35.747-2.586-48.55a24.344 24.344 0 0 0-21.033-10.535c-3.658.31-8.1 2.23-9.21 5.733a10.05 10.05 0 0 0 3.774 10.178 2.557 2.557 0 0 1-1.653 4.513c-.933 0-22.867-.202-22.867-15.374V6.116h-11.35v25.582c0 15.172-21.934 15.374-22.868 15.374a2.558 2.558 0 0 1-1.653-4.513 10.051 10.051 0 0 0 3.774-10.178c-1.11-3.503-5.552-5.424-9.21-5.733a24.343 24.343 0 0 0-21.033 10.534c-9.47 12.804-10.437 30.953-2.586 48.55 2.694 6.061 10.353 20.151 23.118 20.151 2.74.019 5.914-.192 9.212-1.481 3.503-1.368 5.526-4.025 7.057-6.036l.001-.002c.14-.184.275-.362.407-.533 1.689-4.43 2.382-9.93.157-16.137-2.502-4.413-6.087-7.339-10.465-9.132a2.558 2.558 0 0 1 1.038-4.889l.039-.003c.463-.038 5.118-.413 14.031-4.87l.307-.153a30.688 30.688 0 0 1 14.31-3.183 30.688 30.688 0 0 1 14.31 3.183l.306.153c8.914 4.457 13.568 4.832 14.032 4.87l.038.003a2.558 2.558 0 0 1 1.039 4.889c-4.38 1.793-7.964 4.719-10.465 9.132-2.193 6.116-1.552 11.547.083 15.943z"/></mask><path d="M72.649 52.163V41.93a2.558 2.558 0 0 0-5.117 0v10.233a2.558 2.558 0 1 0 5.117 0zM18.08 40.224a34.558 34.558 0 0 0-5.99 13.578 2.558 2.558 0 0 0 2.504 3.083 2.558 2.558 0 0 0 2.5-2.047 29.573 29.573 0 0 1 5.098-11.588 14.99 14.99 0 0 1 11.243-6.436 2.558 2.558 0 0 0 0-5.117 19.938 19.938 0 0 0-15.354 8.527zm107.55 38.504a34.555 34.555 0 0 1-5.991 13.578 19.938 19.938 0 0 1-15.354 8.526 2.558 2.558 0 1 1 0-5.116 14.992 14.992 0 0 0 11.243-6.436 29.573 29.573 0 0 0 5.098-11.588 2.558 2.558 0 0 1 3.026-1.993 2.558 2.558 0 0 1 1.978 3.029z"/><path fill-rule="evenodd" clip-rule="evenodd" d="M34.507 111C18.729 111 9.816 94.784 6.715 87.813-1.895 68.514-.72 48.448 9.862 34.14c1.622-2.193 3.416-3.863 4.497-4.869.405-.377.71-.66.867-.844a30 30 0 0 1 11.387-5.973c3.336-.913 7.631-1.015 8.823-.916 3.134.273 10.178 3.072 12.609 7.015.438.71.79 1.47 1.051 2.264a13.448 13.448 0 0 1-1.215 10.534c5.185-.957 11.977-3.387 11.977-9.654V6.116A5.116 5.116 0 0 1 64.974 1h11.33a5.116 5.116 0 0 1 5.117 5.116v25.582c0 6.267 6.792 8.697 11.977 9.654a13.448 13.448 0 0 1-1.215-10.534c.26-.794.613-1.554 1.052-2.264 2.43-3.942 9.475-6.742 12.609-7.015 1.191-.099 5.486.003 8.823.916a30.002 30.002 0 0 1 11.386 5.973c.157.183.462.467.867.844 1.081 1.006 2.876 2.676 4.497 4.869 10.583 14.307 11.757 34.373 3.147 53.672-3.101 6.97-12.013 23.187-27.792 23.187a26.665 26.665 0 0 1-9.897-1.845c-.283-.103-1.018-.541-1.888-1.117-5.024-2.715-14.397-10.17-9.563-28.738a23.91 23.91 0 0 1 6.938-7.974 68.731 68.731 0 0 1-9.432-3.934l-.304-.154c-3.312-1.639-7.252-2.709-11.237-3.033-4.565.144-9.152 1.22-12.813 3.033l-.305.154a68.736 68.736 0 0 1-9.432 3.934 23.911 23.911 0 0 1 6.938 7.974c4.693 18.025-4.002 25.577-9.111 28.487-1.028.697-1.939 1.25-2.262 1.368A26.664 26.664 0 0 1 34.507 111zm55.437-13.363c.18.23.366.474.56.729 1.53 2.011 3.554 4.668 7.056 6.036 3.298 1.289 6.473 1.5 9.212 1.481 12.765 0 20.424-14.09 23.118-20.15 7.851-17.598 6.884-35.747-2.586-48.55a24.344 24.344 0 0 0-21.033-10.535c-3.658.31-8.1 2.23-9.21 5.733a10.05 10.05 0 0 0 3.774 10.178 2.557 2.557 0 0 1-1.653 4.513c-.933 0-22.867-.202-22.867-15.374V6.116h-11.35v25.582c0 15.172-21.934 15.374-22.868 15.374a2.558 2.558 0 0 1-1.653-4.513 10.051 10.051 0 0 0 3.774-10.178c-1.11-3.503-5.552-5.424-9.21-5.733a24.343 24.343 0 0 0-21.033 10.534c-9.47 12.804-10.437 30.953-2.586 48.55 2.694 6.061 10.353 20.151 23.118 20.151 2.74.019 5.914-.192 9.212-1.481 3.503-1.368 5.526-4.025 7.057-6.036l.001-.002c.14-.184.275-.362.407-.533 1.689-4.43 2.382-9.93.157-16.137-2.502-4.413-6.087-7.339-10.465-9.132a2.558 2.558 0 0 1 1.038-4.889l.039-.003c.463-.038 5.118-.413 14.031-4.87l.307-.153a30.688 30.688 0 0 1 14.31-3.183 30.688 30.688 0 0 1 14.31 3.183l.306.153c8.914 4.457 13.568 4.832 14.032 4.87l.038.003a2.558 2.558 0 0 1 1.039 4.889c-4.38 1.793-7.964 4.719-10.465 9.132-2.193 6.116-1.552 11.547.083 15.943z"/><path d="M72.649 52.163V41.93a2.558 2.558 0 0 0-5.117 0v10.233a2.558 2.558 0 1 0 5.117 0zM18.08 40.224a34.558 34.558 0 0 0-5.99 13.578 2.558 2.558 0 0 0 2.504 3.083 2.558 2.558 0 0 0 2.5-2.047 29.573 29.573 0 0 1 5.098-11.588 14.99 14.99 0 0 1 11.243-6.436 2.558 2.558 0 0 0 0-5.117 19.938 19.938 0 0 0-15.354 8.527zm107.55 38.504a34.555 34.555 0 0 1-5.991 13.578 19.938 19.938 0 0 1-15.354 8.526 2.558 2.558 0 1 1 0-5.116 14.992 14.992 0 0 0 11.243-6.436 29.573 29.573 0 0 0 5.098-11.588 2.558 2.558 0 0 1 3.026-1.993 2.558 2.558 0 0 1 1.978 3.029z" mask="url(#ea)"/><path clip-rule="evenodd" d="M34.507 111C18.729 111 9.816 94.784 6.715 87.813-1.895 68.514-.72 48.448 9.862 34.14c1.622-2.193 3.416-3.863 4.497-4.869.405-.377.71-.66.867-.844a30 30 0 0 1 11.387-5.973c3.336-.913 7.631-1.015 8.823-.916 3.134.273 10.178 3.072 12.609 7.015.438.71.79 1.47 1.051 2.264a13.448 13.448 0 0 1-1.215 10.534c5.185-.957 11.977-3.387 11.977-9.654V6.116A5.116 5.116 0 0 1 64.974 1h11.33a5.116 5.116 0 0 1 5.117 5.116v25.582c0 6.267 6.792 8.697 11.977 9.654a13.448 13.448 0 0 1-1.215-10.534c.26-.794.613-1.554 1.052-2.264 2.43-3.942 9.475-6.742 12.609-7.015 1.191-.099 5.486.003 8.823.916a30.002 30.002 0 0 1 11.386 5.973c.157.183.462.467.867.844 1.081 1.006 2.876 2.676 4.497 4.869 10.583 14.307 11.757 34.373 3.147 53.672-3.101 6.97-12.013 23.187-27.792 23.187a26.665 26.665 0 0 1-9.897-1.845c-.283-.103-1.018-.541-1.888-1.117-5.024-2.715-14.397-10.17-9.563-28.738a23.91 23.91 0 0 1 6.938-7.974 68.731 68.731 0 0 1-9.432-3.934l-.304-.154c-3.312-1.639-7.252-2.709-11.237-3.033-4.565.144-9.152 1.22-12.813 3.033l-.305.154a68.736 68.736 0 0 1-9.432 3.934 23.911 23.911 0 0 1 6.938 7.974c4.693 18.025-4.002 25.577-9.111 28.487-1.028.697-1.939 1.25-2.262 1.368A26.664 26.664 0 0 1 34.507 111zm55.437-13.363c.18.23.366.474.56.729 1.53 2.011 3.554 4.668 7.056 6.036 3.298 1.289 6.473 1.5 9.212 1.481 12.765 0 20.424-14.09 23.118-20.15 7.851-17.598 6.884-35.747-2.586-48.55a24.344 24.344 0 0 0-21.033-10.535c-3.658.31-8.1 2.23-9.21 5.733a10.05 10.05 0 0 0 3.774 10.178 2.557 2.557 0 0 1-1.653 4.513c-.933 0-22.867-.202-22.867-15.374V6.116h-11.35v25.582c0 15.172-21.934 15.374-22.868 15.374a2.558 2.558 0 0 1-1.653-4.513 10.051 10.051 0 0 0 3.774-10.178c-1.11-3.503-5.552-5.424-9.21-5.733a24.343 24.343 0 0 0-21.033 10.534c-9.47 12.804-10.437 30.953-2.586 48.55 2.694 6.061 10.353 20.151 23.118 20.151 2.74.019 5.914-.192 9.212-1.481 3.503-1.368 5.526-4.025 7.057-6.036l.001-.002c.14-.184.275-.362.407-.533 1.689-4.43 2.382-9.93.157-16.137-2.502-4.413-6.087-7.339-10.465-9.132a2.558 2.558 0 0 1 1.038-4.889l.039-.003c.463-.038 5.118-.413 14.031-4.87l.307-.153a30.688 30.688 0 0 1 14.31-3.183 30.688 30.688 0 0 1 14.31 3.183l.306.153c8.914 4.457 13.568 4.832 14.032 4.87l.038.003a2.558 2.558 0 0 1 1.039 4.889c-4.38 1.793-7.964 4.719-10.465 9.132-2.193 6.116-1.552 11.547.083 15.943z" mask="url(#ea)"/></svg><view id="vector13" viewBox="395 0 110 102"/><svg width="110" height="102" viewBox="0 0 110 102" x="395" xmlns="http://www.w3.org/2000/svg"><path d="M110 66.804a3.29 3.29 0 0 0-3.289-3.289h-1.027l.451-.452a3.289 3.289 0 1 0-4.651-4.651l-5.104 5.103h-.151a13.258 13.258 0 0 1-10.11-4.669l-4.493-5.275c3.091-4.208 5.55-9.172 7.352-14.856 5.166-1.83 8.828-4.837 10.894-8.953 3.659-7.291 4.953-24.119-3.989-28.64-3.99-2.018-9.154-1.298-14.542 2.026-4.261 2.628-8.173 6.62-10.208 10.42-3.887 7.252-2.363 13.647-1.382 16.347-1.078 3.41-2.49 6.352-4.224 8.834l-4.032-3.434a13.258 13.258 0 0 1-4.668-10.109v-.151l5.103-5.103a3.29 3.29 0 0 0-4.652-4.652l-.452.451v-1.027a3.29 3.29 0 0 0-6.578 0v1.027l-.452-.451a3.29 3.29 0 0 0-4.651 4.652l5.103 5.103v.151a19.828 19.828 0 0 0 6.981 15.117l3.815 3.25c-5.412 4.325-12.734 5.89-21.921 4.65a38.342 38.342 0 0 0-2.29-.237l-5.106-5.995a19.828 19.828 0 0 0-15.117-6.98h-.152l-5.103-5.104a3.29 3.29 0 0 0-4.652 4.652l.452.452H6.128a3.29 3.29 0 0 0 0 6.578h1.027l-.452.452a3.29 3.29 0 0 0 4.652 4.652l5.104-5.104h.151c3.897 0 7.582 1.702 10.108 4.669l1.725 2.024a36.27 36.27 0 0 0-6.221 1.48c-5.519 1.845-10.496 5.051-14.394 9.27-6.721 7.272-9.183 16.342-7.119 26.23 1.52 7.281 4.986 12.44 5.133 12.656a3.29 3.29 0 0 0 5.99-1.48c.017-.15 1.8-15.108 11.008-23.571 1.173-1.078 5.606-4.513 13.424-3.458a75.85 75.85 0 0 0 7.94.661l4.647 6.1a13.258 13.258 0 0 1 2.413 10.87l-.033.149-6.071 3.901a3.29 3.29 0 1 0 3.556 5.535l.537-.345-.218 1.003a3.29 3.29 0 0 0 6.428 1.4l.219-1.004.345.537a3.286 3.286 0 0 0 4.545.99 3.29 3.29 0 0 0 .99-4.546l-3.902-6.072.032-.148a19.828 19.828 0 0 0-3.607-16.256l-1.827-2.397c8.479-.89 15.764-3.678 21.761-8.349a38.644 38.644 0 0 0 3.25-2.839l3.844 4.514a19.827 19.827 0 0 0 15.117 6.98h.151l5.103 5.104a3.281 3.281 0 0 0 2.327.964 3.289 3.289 0 0 0 2.325-5.615l-.451-.452h1.027a3.289 3.289 0 0 0 3.288-3.29zm-63.79-3.273c-2.87 0-5.894-.214-9.066-.642-10.364-1.398-16.57 3.125-18.756 5.134-5.628 5.174-8.904 12.115-10.772 17.755-1.679-6.149-1.97-14.694 5.043-22.282 5.421-5.866 12.977-9.05 21.198-9.05 1.444 0 2.909.098 4.386.297 12.744 1.72 22.966-1.39 29.958-8.881a3.35 3.35 0 0 0 .273-.282c.026-.032.048-.065.073-.096 3.472-3.852 6.121-8.814 7.853-14.833a3.29 3.29 0 0 0-.247-2.436c-.027-.051-2.579-5.276.779-11.54C80.025 10.9 88.814 4.918 92.915 6.991c1.734.877 2.933 3.991 3.129 8.126.197 4.156-.628 8.856-2.052 11.693-2.075 4.135-6.592 5.53-8.077 5.99-.789.243-2.257.697-2.76 2.443-5.412 18.802-17.82 28.288-36.946 28.287z"/></svg><view id="vector14" viewBox="283 0 112 112"/><svg width="112" height="112" viewBox="0 0 112 112" x="283" xmlns="http://www.w3.org/2000/svg"><path d="M56.647 97.073l-5.78 5.78c-11.53 11.53-30.191 11.529-41.72 0-11.53-11.53-11.529-30.191 0-41.72l4.09-4.09A5614772.337 5614772.337 0 0 1 61.133 9.147m-4.486 87.926l4.486-87.926m-4.486 87.926c5.152 8.627 14.584 14.42 25.346 14.42 16.267 0 29.5-13.233 29.5-29.5 0-10.762-5.793-20.194-14.42-25.346l5.78-5.78c11.529-11.529 11.53-30.19 0-41.72-11.529-11.529-30.19-11.53-41.72 0m-4.486 87.926l4.486-87.926M78.27 60.253v43.48c-10.395-1.774-18.333-10.848-18.333-21.74 0-10.892 7.938-19.966 18.334-21.74zM14.411 97.589l-.353.353.353-.353c-8.62-8.62-8.62-22.571 0-31.192l23.165-23.164 20.93 20.93a29.351 29.351 0 0 0-6.014 17.83c0 2.658.355 5.236 1.018 7.689l-7.907 7.907c-8.62 8.619-22.571 8.62-31.192 0zm49.31-38.74L42.84 37.97l23.557-23.56c8.62-8.62 22.571-8.62 31.192 0 8.619 8.62 8.621 22.571 0 31.192l-7.907 7.907a29.433 29.433 0 0 0-7.69-1.018A29.358 29.358 0 0 0 63.72 58.85zm21.994 44.884v-43.48C96.11 62.027 104.05 71.1 104.05 81.993c0 10.892-7.939 19.966-18.334 21.74z"/></svg><view id="vector16" viewBox="395 102 110 97"/><svg width="110" height="97" viewBox="0 0 110 97" x="395" y="102" xmlns="http://www.w3.org/2000/svg"><path d="M54.785 64.453c-.772 0-1.531.058-2.275.164L45.536 49.2 57.7 21.893c3.904-7.898.758-17.553-7.24-21.553a3.223 3.223 0 0 0-4.377 1.555L35.11 26.155 24.135 1.895A3.223 3.223 0 0 0 19.758.34C11.754 4.342 8.615 14 12.518 21.894L24.696 49.18l-6.945 15.356a16.27 16.27 0 0 0-1.638-.083C7.228 64.453 0 71.682 0 80.567 0 89.45 7.228 96.68 16.113 96.68s16.114-7.229 16.114-16.114c0-.456-.024-.907-.062-1.355l2.965-6.653 3.544 7.94-.002.069c0 8.884 7.228 16.113 16.113 16.113s16.113-7.229 16.113-16.114c0-8.884-7.228-16.113-16.113-16.113zM18.376 19.206a3.305 3.305 0 0 0-.06-.128c-1.892-3.784-1.048-8.117 1.576-10.926l11.682 25.823-3.325 7.351-9.873-22.12zm-2.263 71.028c-5.33 0-9.668-4.337-9.668-9.667 0-5.331 4.337-9.668 9.668-9.668 5.331 0 9.668 4.337 9.668 9.668 0 5.33-4.337 9.668-9.668 9.668zM28.88 70.751a16.233 16.233 0 0 0-4.938-4.261L50.328 8.153c2.642 2.828 3.456 7.165 1.576 10.925a3.197 3.197 0 0 0-.062.13L28.88 70.75zm12.743.54l-2.966-6.647 3.37-7.565 4.396 9.72a16.238 16.238 0 0 0-4.8 4.491zm13.163 18.944c-5.33 0-9.668-4.338-9.668-9.668 0-5.331 4.337-9.668 9.668-9.668 5.331 0 9.668 4.337 9.668 9.668 0 5.33-4.337 9.668-9.668 9.668zM100.332 0H80.996a3.223 3.223 0 0 0 0 6.445h9.668v6.446h-9.668a3.223 3.223 0 0 0 0 6.445h9.668v6.445h-9.668a3.223 3.223 0 0 0 0 6.446h9.668v6.445h-9.668a3.223 3.223 0 0 0 0 6.445h9.668v6.446h-9.668a3.223 3.223 0 0 0 0 6.445h9.668v6.445h-9.668a3.223 3.223 0 0 0 0 6.445h9.668v6.446h-9.668a3.223 3.223 0 1 0 0 6.445h9.668v6.445h-9.668a3.223 3.223 0 0 0 0 6.446h19.336c5.331 0 9.668-4.337 9.668-9.668V9.668C110 4.338 105.663 0 100.332 0zm3.223 87.012a3.227 3.227 0 0 1-3.223 3.222h-3.223V6.445h3.223a3.227 3.227 0 0 1 3.223 3.223v77.344z"/></svg><view id="vector2" viewBox="395 199 110 110"/><svg width="110" height="110" viewBox="0 0 110 110" x="395" y="199" xmlns="http://www.w3.org/2000/svg"><path d="M83.992 34.951a29.065 29.065 0 0 0-.41-4.399c7.662 5.266 16.211 2.493 19.157-5.104 3.601-9.286-4.843-19.185-15.087-23.39-9.035-3.708-19.006-2.735-24.277 5.63a28.908 28.908 0 0 0-8.379-1.235 28.9 28.9 0 0 0-8.38 1.236c-5.27-8.366-15.24-9.339-24.276-5.63C12.096 6.263 3.653 16.162 7.254 25.449c2.939 7.58 11.477 10.381 19.157 5.103a29.052 29.052 0 0 0-.41 4.4C16.363 36.935 0 41.736 0 51.566c0 2.12.795 4.048 2.09 5.737l.004.006v.001l23.9 31.224v11.798a3.22 3.22 0 0 0 1.652 2.813c.5.28 12.445 6.854 27.35 6.854 14.905 0 26.85-6.574 27.35-6.854a3.222 3.222 0 0 0 1.652-2.813V88.535l23.9-31.225c1.289-1.657 2.094-3.634 2.094-5.744 0-9.826-16.351-14.628-26-16.615zm1.213-26.93c7.23 2.968 13.58 9.796 11.525 15.098-1.778 4.585-7 5.208-11.73.19l-.046-.05c-2.952-3.132-6.59-6.991-9.888-8.72a29.177 29.177 0 0 0-5.66-4.246c4.7-6.137 13.1-3.38 15.799-2.272zm-30.209 4.877c12.438 0 22.557 10.119 22.557 22.557v12.89c0 5.705-2.101 11.08-5.938 15.251-4.154.448-8.636.738-13.397.83v-8.302l5.501-5.5a3.223 3.223 0 0 0-2.278-5.502H48.55a3.223 3.223 0 0 0-2.279 5.501l5.502 5.501v8.3a152.51 152.51 0 0 1-13.398-.828c-3.836-4.171-5.937-9.546-5.937-15.252v-12.89c0-12.437 10.119-22.556 22.557-22.556zM25.036 23.26l-.045.048c-4.728 5.018-9.95 4.396-11.729-.19-2.082-5.37 4.427-12.185 11.525-15.098 2.7-1.108 11.1-3.865 15.798 2.272a29.168 29.168 0 0 0-5.66 4.246c-3.298 1.73-6.937 5.59-9.888 8.722zM6.696 52.571c-.168-.354-.25-.682-.25-1.004 0-2.34 5.385-6.919 19.549-10.029v6.806c0 4.977 1.245 9.757 3.584 13.992-5.866-1.066-20.361-4.464-22.883-9.764zm10.018 13.235c6.505 2.116 14.59 3.657 23.625 4.461L43.45 89.25c-6.061-1.44-10.589-3.566-12.108-4.332L16.713 65.806zm60.84 32.537c-3.531 1.651-12.331 5.212-22.557 5.212-10.177 0-19.014-3.567-22.557-5.217v-5.85c4.915 2.002 13.146 4.622 22.557 4.622 9.411 0 17.642-2.62 22.557-4.623v5.856zm1.095-13.422c-2.378 1.205-12.106 5.745-23.652 5.745-1.649 0-3.263-.094-4.825-.258l-3.229-19.694c2.628.124 5.317.188 8.054.188 14.925 0 28.422-1.888 38.283-5.095L78.649 84.92zm24.141-31.54c-2.567 3.34-10.561 6.809-22.375 8.955 2.34-4.235 3.584-9.015 3.584-13.992V41.54c14.164 3.11 19.549 7.688 19.549 10.028 0 .434-.153 1.028-.758 1.814z"/></svg><view id="vector3" viewBox="0 332 110 110"/><svg width="110" height="110" viewBox="0 0 110 110" y="332" xmlns="http://www.w3.org/2000/svg"><path d="M103.881 19.333a.066.066 0 0 1-.007-.006l-.004-.005-.01-.01-.005-.004-.004-.005a.203.203 0 0 1-.007-.006l-.001-.001a19.217 19.217 0 0 0-8.692-4.987 18.973 18.973 0 0 0-4.95-8.656c-7.538-7.537-19.802-7.537-27.34 0-6.89 6.89-7.38 17.465-2.09 24.873L49.944 41.353a3.222 3.222 0 0 0-.88 2.91l2.277 11.391a3.222 3.222 0 0 0 2.528 2.527L65.26 60.46a3.222 3.222 0 0 0 2.91-.882l10.827-10.827c7.483 5.344 18.076 4.731 24.873-2.09 7.533-7.533 7.537-19.79.011-27.328zm-4.568 22.771l-.09.09-.004.004c-5.585 5.474-14.024 4.28-18.034.003l-.097-.097-.007-.007a3.212 3.212 0 0 0-2.31-.936h-.017a3.215 3.215 0 0 0-2.182.903l-11.74 11.739-7.593-1.52-1.52-7.593 11.7-11.698a3.222 3.222 0 0 0 0-4.557c-5.038-5.037-5.038-13.188 0-18.226 5.024-5.024 13.2-5.024 18.225 0a12.457 12.457 0 0 1 2.494 3.57 19.243 19.243 0 0 0-11.607 5.544 3.222 3.222 0 1 0 4.556 4.556c5.281-5.28 13.528-4.685 18.214-.012l.002.002.004.003.007.007c5.024 5.024 5.024 13.2 0 18.225zM39.03 34.518l-4.556-4.556a3.222 3.222 0 1 0-4.556 4.556l4.556 4.556a3.222 3.222 0 1 0 4.556-4.556zm-2.278 8.046h-9.113a3.222 3.222 0 0 0 0 6.444h9.113a3.222 3.222 0 0 0 0-6.444zm8.99-18.102a3.222 3.222 0 0 0-3.222 3.221v9.113a3.222 3.222 0 0 0 6.444 0v-9.113a3.222 3.222 0 0 0-3.222-3.221zm34.296 51.064l-4.556-4.557a3.222 3.222 0 1 0-4.557 4.557l4.557 4.556a3.222 3.222 0 1 0 4.556-4.556zm-16.039-5.5a3.222 3.222 0 0 0-3.222 3.222v9.113a3.222 3.222 0 0 0 6.444 0v-9.113a3.222 3.222 0 0 0-3.222-3.222zm18.317-9.205h-9.113a3.222 3.222 0 0 0 0 6.444h9.113a3.222 3.222 0 1 0 0-6.444z"/><path d="M60.341 65.484a3.224 3.224 0 0 0-2.453-2.23l-9.285-1.858-1.857-9.285a3.221 3.221 0 0 0-5.43-1.653L30.53 61.178c-7.545-5.375-18.114-4.68-24.878 2.083-7.537 7.538-7.537 19.801 0 27.339 2.4 2.4 5.361 4.087 8.662 4.951 3.796 14.422 21.85 19.215 32.346 8.718 6.777-6.777 7.481-17.313 2.096-24.865l10.77-10.706a3.22 3.22 0 0 0 .814-3.214zm-18.23 11.44l-.004.004-.002.003a3.226 3.226 0 0 0 0 4.556c5.044 5.045 5.025 13.2 0 18.226-7.487 7.487-20.345 3.264-21.818-7.33-.616-4.423.927-8.23 3.592-10.896a3.222 3.222 0 1 0-4.557-4.556 19.236 19.236 0 0 0-5.54 11.605 12.456 12.456 0 0 1-3.573-2.492c-5.024-5.025-5.024-13.201 0-18.226 5.025-5.025 13.201-5.025 18.226 0a3.222 3.222 0 0 0 4.55.007l8.619-8.568 1.102 5.51a3.222 3.222 0 0 0 2.527 2.527l5.467 1.093-8.589 8.537z"/></svg><view id="vector4" viewBox="317 332 89 92"/><svg width="89" height="92" viewBox="0 0 89 92" x="317" y="332" xmlns="http://www.w3.org/2000/svg"><path d="M54.45 40.7c2.542 0 4.728-.862 6.564-2.173-1.512 3.286-2.365 6.941-2.365 10.223 0 .65.032 1.313.099 1.98a35.968 35.968 0 0 0-4.212-3.108c-3.255-2.036-6.894-3.472-10.537-3.472-3.642 0-7.281 1.436-10.536 3.472a35.283 35.283 0 0 0-3.619 2.612c.038-.5.055-.995.055-1.484 0-3.114-.834-6.517-2.23-9.613a11.746 11.746 0 0 0 5.88 1.563c4.39 0 7.434-2.702 9.205-5.713a16.92 16.92 0 0 0 1.245-2.628 16.93 16.93 0 0 0 1.246 2.628c1.771 3.01 4.815 5.713 9.204 5.713zm12.628-10.022c1.566-3.455 2.421-7.3 2.421-10.528 0-3.254-.798-6.917-2.545-9.887-1.771-3.01-4.815-5.713-9.205-5.713-5.44 0-9.252 3.947-11.483 7.794a26.686 26.686 0 0 0-2.209 4.951c-.58-1.883-1.354-3.728-2.309-5.406C39.514 7.959 35.701 4 30.25 4c-4.389 0-7.433 2.702-9.204 5.713-1.723 2.93-2.524 6.533-2.545 9.753-.232 3.333.409 7.13 1.796 10.562-1.759-1.115-3.769-1.828-5.997-1.828-3.863 0-6.689 2.023-8.393 4.729C4.287 35.5 3.65 38.679 3.65 41.6c0 4.35 1.63 9.268 4.145 13.12 2.432 3.724 6.376 7.43 11.455 7.43.119 0 .237-.002.353-.006-2.958 4.892-4.953 10.273-4.953 15.206 0 3.667 1.346 6.599 3.917 8.468C20.936 87.541 23.86 88 26.399 88c4.028 0 7.48-1.347 10.24-2.424l.04-.015c2.952-1.153 5.072-1.961 7.32-1.961 1.928 0 3.867.77 6.716 1.938l.062.026C53.374 86.629 56.715 88 60.5 88c2.364 0 5.467-.27 8.074-1.775 2.938-1.694 4.776-4.678 4.776-8.875 0-4.945-2.004-10.34-4.973-15.24.3.027.609.04.923.04 5.312 0 9.269-3.647 11.69-7.472 2.465-3.898 3.91-8.805 3.91-13.078 0-3.067-.84-6.24-2.512-8.748-1.695-2.541-4.459-4.652-8.138-4.652-2.766 0-5.165.99-7.171 2.478z"/></svg><view id="vector5" viewBox="110 332 110 110"/><svg width="110" height="110" viewBox="0 0 110 110" x="110" y="332" xmlns="http://www.w3.org/2000/svg"><path d="M110 22.773V3.223A3.223 3.223 0 0 0 106.777 0C94.815 0 82.578 3.456 72.056 9.77a3.18 3.18 0 0 0-.24-.103A48.173 48.173 0 0 0 55 6.66a48.335 48.335 0 0 0-17.085 3.096C27.403 3.456 15.151 0 3.223 0A3.223 3.223 0 0 0 0 3.223v19.55c0 6.792 3.305 13.401 8.857 17.753A48.48 48.48 0 0 0 6.66 55c0 12.52 4.888 24.725 13.446 33.666 2.17 9.053 10.05 14.889 18.78 14.889 1.03 0 2.046-.084 3.043-.24C44.93 107.49 49.74 110 55 110s10.071-2.51 13.07-6.685c.998.156 2.014.24 3.043.24 8.803 0 16.595-5.882 18.775-14.883C98.45 79.73 103.34 67.523 103.34 55c0-3.539-.381-7.03-1.132-10.44C108.365 39.725 110 28.22 110 22.774zm-103.555 0V6.538c8.315.474 16.702 2.765 24.313 6.621-8.171 4.752-15.106 12.027-19.4 20.998-3.107-3.066-4.913-7.187-4.913-11.384zM55 103.555a9.624 9.624 0 0 1-6.533-2.537A19.256 19.256 0 0 0 55 94.894a19.259 19.259 0 0 0 6.533 6.124A9.624 9.624 0 0 1 55 103.555zm-3.018-30.35A3.228 3.228 0 0 1 55 71.114c1.38 0 2.56.871 3.018 2.093L55 76.224l-3.018-3.018zm31.643 13.96c-1.486 6.158-6.766 9.944-12.512 9.944-7.9 0-13.971-6.996-12.733-15.15l5.344-5.344a3.223 3.223 0 0 0 .944-2.28c0-5.33-4.337-9.667-9.668-9.667-5.33 0-9.668 4.337-9.668 9.668 0 .855.34 1.674.944 2.279l5.344 5.344c1.242 8.178-4.857 15.15-12.733 15.15-7.217 0-12.89-5.83-12.89-13.105 0-3.443 1.34-6.68 3.774-9.115a3.222 3.222 0 1 0-4.557-4.558 19.227 19.227 0 0 0-4.912 8.322A42.666 42.666 0 0 1 13.105 55c0-13.437 6.36-25.415 16.227-33.087L83.854 85.98a3.23 3.23 0 0 0-.23 1.187zm12.61-24.75L82.746 46.473a3.223 3.223 0 0 0-4.92 4.163l16.34 19.312a42.281 42.281 0 0 1-6.125 11.007l-53.29-62.62a41.595 41.595 0 0 1 12.009-4.414l31.066 36.715a3.223 3.223 0 0 0 4.92-4.163L54.518 13.112a41.69 41.69 0 0 1 14.406 2.362l25.602 25.602A41.769 41.769 0 0 1 96.894 55a42.25 42.25 0 0 1-.659 7.415zm3.728-24.937a3.21 3.21 0 0 0-.372-.453L76.948 14.383c8.201-4.6 17.433-7.324 26.607-7.845v16.236c0 4.907-1.336 11.14-3.593 14.705z"/><path d="M35.664 45.332c-5.33 0-9.668 4.337-9.668 9.668 0 5.33 4.337 9.668 9.668 9.668 5.331 0 9.668-4.337 9.668-9.668 0-5.33-4.337-9.668-9.668-9.668zm0 12.89A3.226 3.226 0 0 1 32.441 55a3.226 3.226 0 0 1 3.223-3.223A3.226 3.226 0 0 1 38.887 55a3.226 3.226 0 0 1-3.223 3.223z"/></svg><view id="vector6" viewBox="0 112 127 110"/><svg width="127" height="110" viewBox="0 0 127 110" y="112" xmlns="http://www.w3.org/2000/svg"><path d="M92.735 0C82.294 0 73.22 4.97 66.493 14.372a48.075 48.075 0 0 0-3.354 5.438 48.104 48.104 0 0 0-3.355-5.438C53.058 4.97 43.984 0 33.542 0 14.206 0 0 16.094 0 35.827c0 21.994 17.87 37.045 44.92 59.829 5.038 4.243 10.248 8.632 15.796 13.44a3.69 3.69 0 0 0 2.423.904 3.69 3.69 0 0 0 2.423-.904c5.548-4.808 10.758-9.197 15.796-13.44 27.05-22.784 44.92-37.835 44.92-59.829C126.278 16.1 112.078 0 92.735 0zM76.592 89.997c-4.32 3.638-8.766 7.383-13.453 11.416-4.687-4.033-9.133-7.778-13.453-11.416-14.54-12.247-26.259-22.12-33.641-31.79h17.497a3.7 3.7 0 0 0 3.31-2.046l4.09-8.18L52.43 70.959a3.7 3.7 0 0 0 6.618 0l4.09-8.18 4.09 8.18a3.699 3.699 0 0 0 6.618 0l11.49-22.978 4.09 8.18c.626 1.253 1.907 2.02 3.308 2.02h17.498c-7.382 9.672-19.102 19.57-33.641 31.816zm18.43-39.19l-6.377-12.753a3.7 3.7 0 0 0-6.618 0L70.538 61.032l-4.09-8.18a3.7 3.7 0 0 0-6.618 0l-4.09 8.18-11.49-22.978a3.7 3.7 0 0 0-6.617 0l-6.377 12.753h-19.99C8.751 45.99 7.4 41.084 7.4 35.827 7.4 19.62 18.64 7.4 33.542 7.4c8.003 0 14.766 3.738 20.103 11.109 4.201 5.803 5.91 11.763 5.93 11.836a3.7 3.7 0 0 0 7.13-.007c.063-.23 6.576-22.938 26.03-22.938 14.904 0 26.144 12.221 26.144 28.428 0 5.257-1.352 10.162-3.868 14.98h-19.99z"/></svg><view id="vector7" viewBox="127 112 126 110"/><svg width="126" height="110" viewBox="0 0 126 110" x="127" y="112" xmlns="http://www.w3.org/2000/svg"><path d="M99.489 29.333a3.667 3.667 0 1 0 0-7.334 3.667 3.667 0 0 0 0 7.334zM92.156 44a3.667 3.667 0 1 0 0-7.333 3.667 3.667 0 0 0 0 7.333zm14.666 0a3.666 3.666 0 1 0 0-7.332 3.666 3.666 0 0 0 0 7.332z"/><path d="M92.155 7.333h-5.748C83.804 2.948 79.023 0 73.564 0H51.591c-5.459 0-10.24 2.948-12.842 7.333H33c-18.196 0-33 14.804-33 33v29.334c0 2.937 1.144 5.7 3.223 7.777a10.947 10.947 0 0 0 4.512 2.73 58.507 58.507 0 0 0 11.332 28.359c1.804 2.407 5.582 1.732 6.445-1.146l6.846-22.823A10.968 10.968 0 0 0 40.334 88c2.846 0 5.442-1.086 7.397-2.866A11.293 11.293 0 0 0 55.244 88c2.846 0 5.442-1.086 7.398-2.866A11.293 11.293 0 0 0 70.156 88c2.815 0 5.385-1.064 7.333-2.81A10.954 10.954 0 0 0 84.822 88c3.136 0 5.97-1.32 7.976-3.432l6.845 22.819c.865 2.882 4.643 3.55 6.446 1.146a58.518 58.518 0 0 0 11.332-28.359 10.947 10.947 0 0 0 4.512-2.73 10.926 10.926 0 0 0 3.222-7.777V40.333c0-18.196-14.803-33-33-33zm-40.564 0h21.973c4.186 0 7.591 3.406 7.591 7.591 0 1.504-.44 2.96-1.275 4.212l-9.433 14.15c-1.37 2.054-3.945 3.38-6.561 3.38h-2.617c-2.56 0-5.17-1.295-6.56-3.38l-9.434-14.15A7.57 7.57 0 0 1 44 14.925c0-4.186 3.406-7.592 7.591-7.592zm-44.258 33c0-14.152 11.514-25.666 25.667-25.666h3.673c-.001.086-.006.171-.006.258 0 2.956.866 5.819 2.506 8.278l9.434 14.151a14.437 14.437 0 0 0 2.964 3.228c-.14 5.853-5.228 10.751-11.238 10.751h-11.63c-7.799 0-15.217 2.46-21.37 7.012V40.333zm13.448 57.304a51.159 51.159 0 0 1-5.692-17.755 10.972 10.972 0 0 0 3.688-2.438 14.142 14.142 0 0 1 9.29-4.095l-7.286 24.288zM44 77a3.67 3.67 0 0 1-3.667 3.667A3.67 3.67 0 0 1 36.667 77v-3.667h3.666c1.232 0 2.456-.07 3.667-.205V77zm14.911 0a3.67 3.67 0 0 1-3.667 3.667c-2.083 0-3.91-1.714-3.91-3.667v-5.553a33.242 33.242 0 0 0 7.577-3.822V77zm14.911 0a3.67 3.67 0 0 1-3.666 3.667c-2.084 0-3.912-1.714-3.912-3.667v-9.375a33.25 33.25 0 0 0 7.578 3.822V77zm14.667 0a3.67 3.67 0 0 1-3.667 3.667A3.67 3.67 0 0 1 81.155 77v-3.872c1.212.135 2.436.205 3.667.205h3.667V77zm15.885 20.637l-7.286-24.288a14.145 14.145 0 0 1 9.29 4.095 10.972 10.972 0 0 0 3.689 2.438 51.154 51.154 0 0 1-5.693 17.755zm12.373-25.378a3.667 3.667 0 0 1-5.184 0 21.517 21.517 0 0 0-15.11-6.26h-11.63c-7.451 0-14.552-3.237-19.484-8.882a3.667 3.667 0 0 0-5.523 0C54.885 62.762 47.783 66 40.333 66H28.704a21.519 21.519 0 0 0-15.112 6.259 3.668 3.668 0 0 1-5.184 0 3.67 3.67 0 0 1 0-5.186c5.419-5.42 12.626-8.406 20.295-8.406h11.63c4.891 0 9.526-1.898 13.052-5.345 2.717-2.656 4.5-5.969 5.195-9.562.883.157 1.782.24 2.69.24h2.616c.987 0 1.965-.097 2.921-.283 1.593 8.498 9.063 14.95 18.015 14.95h11.63c7.669 0 14.877 2.985 20.295 8.407a3.669 3.669 0 0 1 0 5.185zm1.075-13.914c-6.153-4.552-13.571-7.012-21.37-7.012h-11.63c-6.047 0-10.97-4.906-10.999-10.947a14.397 14.397 0 0 0 2.725-3.032l9.434-14.15a14.879 14.879 0 0 0 2.507-8.28c0-.086-.005-.171-.007-.258h3.673c14.153 0 25.667 11.514 25.667 25.667v18.012z"/><path d="M25.666 29.333a3.667 3.667 0 1 0 0-7.333 3.667 3.667 0 0 0 0 7.333zM18.334 44a3.667 3.667 0 1 0 0-7.333 3.667 3.667 0 0 0 0 7.333zM33 44a3.667 3.667 0 1 0 0-7.333A3.667 3.667 0 0 0 33 44z"/></svg><view id="vector8" viewBox="142 0 141 101"/><svg width="141" height="101" viewBox="0 0 141 101" x="142" xmlns="http://www.w3.org/2000/svg"><g filter="url(#ofilter0_dd_16626_308)"><path d="M125.167 1h-15.77c-4.357 0-8.118 2.587-9.837 6.304-2.798-.652-5.806-.981-8.98-.981-3.172 0-6.181.33-8.98.98C79.884 3.588 76.122 1 71.765 1h-15.77C50.02 1 45.16 5.86 45.16 11.832c0 2.198.663 4.453 1.82 6.187l6.847 10.27c1.096 1.644 2.662 2.944 4.466 3.778-3.352 13.428-2.31 36.088-2.31 35.643 0 10.272 8.357 18.629 18.629 18.629 1.681 0 3.31-.225 4.861-.644 2.461 3.751 6.669 6.144 11.107 6.144 4.437 0 8.645-2.393 11.106-6.144 1.55.42 3.18.644 4.861.644 10.272 0 18.629-8.357 18.629-18.63 0-13.558.646-24.814-2.282-35.655 1.792-.835 3.348-2.129 4.438-3.765l6.848-10.27c1.156-1.735 1.819-3.99 1.819-6.186C136 5.86 131.14 1 125.167 1zm-66.91 24.337l-6.848-10.271c-.57-.856-.925-2.095-.925-3.234a5.516 5.516 0 0 1 5.51-5.51h15.77a5.516 5.516 0 0 1 5.51 5.51c0 1.139-.355 2.378-.925 3.234L69.5 25.337a5.498 5.498 0 0 1-4.584 2.453h-1.899c-1.899 0-3.768-.963-4.762-2.453zm32.324 61.18c-2.35 0-4.602-1.148-6.118-3.002a18.775 18.775 0 0 0 6.118-6.218 18.776 18.776 0 0 0 6.118 6.218c-1.516 1.854-3.768 3.001-6.118 3.001zm-2.493-25.063a2.666 2.666 0 0 1 2.493-1.728c1.139 0 2.113.72 2.492 1.728l-2.492 2.492-2.493-2.492zm31.767 6.256c0 7.337-5.969 13.306-13.307 13.306-6.98 0-12.722-5.403-13.264-12.246l4.5-4.501c.5-.5.78-1.176.78-1.882 0-4.402-3.581-7.984-7.983-7.984-4.403 0-7.984 3.582-7.984 7.984 0 .706.28 1.383.78 1.882l4.5 4.501c-.542 6.844-6.284 12.246-13.264 12.246-7.337 0-13.306-5.97-13.306-13.306 0-.682-.993-22.038 2.213-34.597h1.397c3.63 0 7-1.803 9.013-4.824l6.847-10.27c1.032-1.548 1.67-3.51 1.796-5.475 2.466-.596 5.15-.899 8.008-.899 2.858 0 5.541.303 8.008.899.125 1.965.763 3.927 1.795 5.475l6.847 10.27a10.862 10.862 0 0 0 1.634 1.923 13.226 13.226 0 0 0-7.639-2.422c-7.337 0-13.307 5.97-13.307 13.307 0 7.337 5.97 13.306 13.307 13.306 7.337 0 13.306-5.97 13.306-13.306 0-3.9-1.687-7.414-4.369-9.85a10.813 10.813 0 0 0 6.081 1.866h1.424c2.822 10.125 2.187 20.722 2.187 34.597zM109.21 41.097c0 4.402-3.582 7.984-7.984 7.984-4.403 0-7.984-3.582-7.984-7.984 0-4.403 3.581-7.984 7.984-7.984 4.402 0 7.984 3.581 7.984 7.984zm20.542-26.03l-6.847 10.27c-.994 1.49-2.863 2.453-4.762 2.453h-1.899a5.498 5.498 0 0 1-4.584-2.453l-6.848-10.27c-.57-.857-.925-2.096-.925-3.235a5.516 5.516 0 0 1 5.51-5.51h15.771a5.516 5.516 0 0 1 5.509 5.51c0 1.139-.354 2.378-.925 3.234z"/><path d="M79.936 43.758a2.661 2.661 0 1 0 0-5.322 2.661 2.661 0 0 0 0 5.322zm21.29 0a2.66 2.66 0 1 0 0-5.322 2.66 2.66 0 0 0 0 5.322zm-54.149.307h-8.294a5.704 5.704 0 0 0-5.173 3.315 20.849 20.849 0 0 0-4.723-.516 20.85 20.85 0 0 0-4.723.516 5.703 5.703 0 0 0-5.173-3.316h-8.294A5.704 5.704 0 0 0 5 49.762c0 1.156.349 2.342.957 3.254l3.6 5.401a5.684 5.684 0 0 0 2.35 1.987c-1.763 7.062-1.215 18.98-1.215 18.746 0 5.402 4.395 9.797 9.797 9.797.884 0 1.742-.118 2.557-.338 1.294 1.972 3.507 3.23 5.841 3.23s4.547-1.257 5.841-3.23a9.81 9.81 0 0 0 2.557.338c5.402 0 9.797-4.395 9.797-9.797 0-7.131.34-13.05-1.2-18.753a5.68 5.68 0 0 0 2.334-1.98l3.601-5.401c.608-.912.957-2.098.957-3.254a5.704 5.704 0 0 0-5.697-5.697zm-35.19 12.799l-3.601-5.402c-.3-.45-.487-1.102-.487-1.7 0-1.598 1.3-2.898 2.898-2.898h8.294c1.598 0 2.898 1.3 2.898 2.898 0 .598-.187 1.25-.487 1.7l-3.6 5.402a2.892 2.892 0 0 1-2.412 1.29h-.998c-1 0-1.982-.506-2.505-1.29zm17 32.175c-1.236 0-2.42-.603-3.218-1.578a9.876 9.876 0 0 0 3.218-3.27 9.876 9.876 0 0 0 3.218 3.27c-.798.975-1.982 1.578-3.218 1.578zm-1.31-13.18c.199-.53.711-.91 1.31-.91.6 0 1.112.38 1.31.91l-1.31 1.31-1.31-1.31zm16.706 3.29a7.006 7.006 0 0 1-6.998 6.998c-3.671 0-6.691-2.842-6.976-6.44l2.367-2.368a1.4 1.4 0 0 0 .41-.99 4.204 4.204 0 0 0-4.199-4.199 4.204 4.204 0 0 0-4.199 4.2c0 .37.148.727.41.989l2.367 2.367c-.285 3.6-3.305 6.44-6.976 6.44a7.006 7.006 0 0 1-6.998-6.997c0-.359-.522-11.59 1.165-18.196h.734c1.91 0 3.681-.948 4.74-2.537l3.601-5.401c.543-.814.878-1.846.944-2.88 1.297-.313 2.71-.472 4.212-.472 1.503 0 2.915.16 4.212.473.066 1.033.401 2.065.944 2.879l3.6 5.401c.25.375.54.713.86 1.012a6.956 6.956 0 0 0-4.017-1.274 7.006 7.006 0 0 0-6.998 6.998 7.006 7.006 0 0 0 6.998 6.998 7.006 7.006 0 0 0 6.998-6.998 6.98 6.98 0 0 0-2.298-5.18c.93.63 2.038.981 3.198.981h.749c1.484 5.325 1.15 10.898 1.15 18.196zm-5.599-13.997a4.204 4.204 0 0 1-4.198 4.2 4.204 4.204 0 0 1-4.2-4.2 4.204 4.204 0 0 1 4.2-4.199 4.204 4.204 0 0 1 4.199 4.2zm10.804-13.69l-3.6 5.402c-.523.784-1.506 1.29-2.505 1.29h-.999a2.892 2.892 0 0 1-2.411-1.29l-3.601-5.402c-.3-.45-.487-1.102-.487-1.7 0-1.598 1.3-2.898 2.898-2.898h8.294c1.598 0 2.898 1.3 2.898 2.898 0 .598-.187 1.25-.487 1.7z"/><path d="M23.288 66.552a1.4 1.4 0 1 0 0-2.799 1.4 1.4 0 0 0 0 2.8zm11.198 0a1.4 1.4 0 1 0 0-2.799 1.4 1.4 0 0 0 0 2.8zM125.167 1h-15.77c-4.357 0-8.118 2.587-9.837 6.304-2.798-.652-5.806-.981-8.98-.981-3.172 0-6.181.33-8.98.98C79.884 3.588 76.122 1 71.765 1h-15.77C50.02 1 45.16 5.86 45.16 11.832c0 2.198.663 4.453 1.82 6.187l6.847 10.27c1.096 1.644 2.662 2.944 4.466 3.778-3.352 13.428-2.31 36.088-2.31 35.643 0 10.272 8.357 18.629 18.629 18.629 1.681 0 3.31-.225 4.861-.644 2.461 3.751 6.669 6.144 11.107 6.144 4.437 0 8.645-2.393 11.106-6.144 1.55.42 3.18.644 4.861.644 10.272 0 18.629-8.357 18.629-18.63 0-13.558.646-24.814-2.282-35.655 1.792-.835 3.348-2.129 4.438-3.765l6.848-10.27c1.156-1.735 1.819-3.99 1.819-6.186C136 5.86 131.14 1 125.167 1zm-66.91 24.337l-6.848-10.271c-.57-.856-.925-2.095-.925-3.234a5.516 5.516 0 0 1 5.51-5.51h15.77a5.516 5.516 0 0 1 5.51 5.51c0 1.139-.355 2.378-.925 3.234L69.5 25.337a5.498 5.498 0 0 1-4.584 2.453h-1.899c-1.899 0-3.768-.963-4.762-2.453zm32.324 61.18c-2.35 0-4.602-1.148-6.118-3.002a18.775 18.775 0 0 0 6.118-6.218 18.776 18.776 0 0 0 6.118 6.218c-1.516 1.854-3.768 3.001-6.118 3.001zm-2.493-25.063a2.666 2.666 0 0 1 2.493-1.728c1.139 0 2.113.72 2.492 1.728l-2.492 2.492-2.493-2.492zm31.767 6.256c0 7.337-5.969 13.306-13.307 13.306-6.98 0-12.722-5.403-13.264-12.246l4.5-4.501c.5-.5.78-1.176.78-1.882 0-4.402-3.581-7.984-7.983-7.984-4.403 0-7.984 3.582-7.984 7.984 0 .706.28 1.383.78 1.882l4.5 4.501c-.542 6.844-6.284 12.246-13.264 12.246-7.337 0-13.306-5.97-13.306-13.306 0-.682-.993-22.038 2.213-34.597h1.397c3.63 0 7-1.803 9.013-4.824l6.847-10.27c1.032-1.548 1.67-3.51 1.796-5.475 2.466-.596 5.15-.899 8.008-.899 2.858 0 5.541.303 8.008.899.125 1.965.763 3.927 1.795 5.475l6.847 10.27a10.862 10.862 0 0 0 1.634 1.923 13.226 13.226 0 0 0-7.639-2.422c-7.337 0-13.307 5.97-13.307 13.307 0 7.337 5.97 13.306 13.307 13.306 7.337 0 13.306-5.97 13.306-13.306 0-3.9-1.687-7.414-4.369-9.85a10.813 10.813 0 0 0 6.081 1.866h1.424c2.822 10.125 2.187 20.722 2.187 34.597zM109.21 41.097c0 4.402-3.582 7.984-7.984 7.984-4.403 0-7.984-3.582-7.984-7.984 0-4.403 3.581-7.984 7.984-7.984 4.402 0 7.984 3.581 7.984 7.984zm20.542-26.03l-6.847 10.27c-.994 1.49-2.863 2.453-4.762 2.453h-1.899a5.498 5.498 0 0 1-4.584-2.453l-6.848-10.27c-.57-.857-.925-2.096-.925-3.235a5.516 5.516 0 0 1 5.51-5.51h15.771a5.516 5.516 0 0 1 5.509 5.51c0 1.139-.354 2.378-.925 3.234z"/><path d="M79.936 43.758a2.661 2.661 0 1 0 0-5.322 2.661 2.661 0 0 0 0 5.322zm21.29 0a2.66 2.66 0 1 0 0-5.322 2.66 2.66 0 0 0 0 5.322zm-54.149.307h-8.294a5.704 5.704 0 0 0-5.173 3.315 20.849 20.849 0 0 0-4.723-.516 20.85 20.85 0 0 0-4.723.516 5.703 5.703 0 0 0-5.173-3.316h-8.294A5.704 5.704 0 0 0 5 49.762c0 1.156.349 2.342.957 3.254l3.6 5.401a5.684 5.684 0 0 0 2.35 1.987c-1.763 7.062-1.215 18.98-1.215 18.746 0 5.402 4.395 9.797 9.797 9.797.884 0 1.742-.118 2.557-.338 1.294 1.972 3.507 3.23 5.841 3.23s4.547-1.257 5.841-3.23a9.81 9.81 0 0 0 2.557.338c5.402 0 9.797-4.395 9.797-9.797 0-7.131.34-13.05-1.2-18.753a5.68 5.68 0 0 0 2.334-1.98l3.601-5.401c.608-.912.957-2.098.957-3.254a5.704 5.704 0 0 0-5.697-5.697zm-35.19 12.799l-3.601-5.402c-.3-.45-.487-1.102-.487-1.7 0-1.598 1.3-2.898 2.898-2.898h8.294c1.598 0 2.898 1.3 2.898 2.898 0 .598-.187 1.25-.487 1.7l-3.6 5.402a2.892 2.892 0 0 1-2.412 1.29h-.998c-1 0-1.982-.506-2.505-1.29zm17 32.175c-1.236 0-2.42-.603-3.218-1.578a9.876 9.876 0 0 0 3.218-3.27 9.876 9.876 0 0 0 3.218 3.27c-.798.975-1.982 1.578-3.218 1.578zm-1.31-13.18c.199-.53.711-.91 1.31-.91.6 0 1.112.38 1.31.91l-1.31 1.31-1.31-1.31zm16.706 3.29a7.006 7.006 0 0 1-6.998 6.998c-3.671 0-6.691-2.842-6.976-6.44l2.367-2.368a1.4 1.4 0 0 0 .41-.99 4.204 4.204 0 0 0-4.199-4.199 4.204 4.204 0 0 0-4.199 4.2c0 .37.148.727.41.989l2.367 2.367c-.285 3.6-3.305 6.44-6.976 6.44a7.006 7.006 0 0 1-6.998-6.997c0-.359-.522-11.59 1.165-18.196h.734c1.91 0 3.681-.948 4.74-2.537l3.601-5.401c.543-.814.878-1.846.944-2.88 1.297-.313 2.71-.472 4.212-.472 1.503 0 2.915.16 4.212.473.066 1.033.401 2.065.944 2.879l3.6 5.401c.25.375.54.713.86 1.012a6.956 6.956 0 0 0-4.017-1.274 7.006 7.006 0 0 0-6.998 6.998 7.006 7.006 0 0 0 6.998 6.998 7.006 7.006 0 0 0 6.998-6.998 6.98 6.98 0 0 0-2.298-5.18c.93.63 2.038.981 3.198.981h.749c1.484 5.325 1.15 10.898 1.15 18.196zm-5.599-13.997a4.204 4.204 0 0 1-4.198 4.2 4.204 4.204 0 0 1-4.2-4.2 4.204 4.204 0 0 1 4.2-4.199 4.204 4.204 0 0 1 4.199 4.2zm10.804-13.69l-3.6 5.402c-.523.784-1.506 1.29-2.505 1.29h-.999a2.892 2.892 0 0 1-2.411-1.29l-3.601-5.402c-.3-.45-.487-1.102-.487-1.7 0-1.598 1.3-2.898 2.898-2.898h8.294c1.598 0 2.898 1.3 2.898 2.898 0 .598-.187 1.25-.487 1.7z"/><path d="M23.288 66.552a1.4 1.4 0 1 0 0-2.799 1.4 1.4 0 0 0 0 2.8zm11.198 0a1.4 1.4 0 1 0 0-2.799 1.4 1.4 0 0 0 0 2.8z"/></g><defs><filter id="ofilter0_dd_16626_308" x=".5" y=".5" width="140" height="99.84" filterUnits="userSpaceOnUse" color-interpolation-filters="sRGB"><feFlood flood-opacity="0" result="BackgroundImageFix"/><feColorMatrix in="SourceAlpha" values="0 0 0 0 0 0 0 0 0 0 0 0 0 0 0 0 0 0 127 0" result="hardAlpha"/><feOffset dy="4"/><feGaussianBlur stdDeviation="2"/><feComposite in2="hardAlpha" operator="out"/><feColorMatrix values="0 0 0 0 0 0 0 0 0 0 0 0 0 0 0 0 0 0 0.25 0"/><feBlend in2="BackgroundImageFix" result="effect1_dropShadow_16626_308"/><feColorMatrix in="SourceAlpha" values="0 0 0 0 0 0 0 0 0 0 0 0 0 0 0 0 0 0 127 0" result="hardAlpha"/><feOffset dy="4"/><feGaussianBlur stdDeviation="2"/><feComposite in2="hardAlpha" operator="out"/><feColorMatrix values="0 0 0 0 0 0 0 0 0 0 0 0 0 0 0 0 0 0 0.25 0"/><feBlend in2="effect1_dropShadow_16626_308" result="effect2_dropShadow_16626_308"/><feBlend in="SourceGraphic" in2="effect2_dropShadow_16626_308" result="shape"/></filter></defs></svg><view id="vector9" viewBox="220 332 97 110"/><svg width="97" height="110" viewBox="0 0 97 110" x="220" y="332" xmlns="http://www.w3.org/2000/svg"><path d="M48.34 32.226a3.223 3.223 0 1 0 0-6.445 3.223 3.223 0 0 0 0 6.445z"/><path d="M72.15 58.558a29.202 29.202 0 0 0 5.194-16.663V28.998C77.34 13.008 64.33 0 48.34 0 32.347 0 19.336 13.011 19.336 29.004v12.89a29.203 29.203 0 0 0 5.193 16.664C10.502 60.702 0 72.925 0 87.227v19.55A3.223 3.223 0 0 0 3.223 110h90.234a3.223 3.223 0 0 0 3.223-3.223v-19.55c0-14.254-10.456-26.518-24.53-28.669zM48.34 6.445c11.345 0 20.759 8.418 22.327 19.336H64.13c-1.497-7.346-8.008-12.89-15.79-12.89-7.78 0-14.291 5.544-15.788 12.89h-6.539C27.581 14.864 36.995 6.445 48.34 6.445zm9.668 22.559c0 5.33-4.337 9.668-9.668 9.668-5.331 0-9.668-4.337-9.668-9.668 0-5.331 4.337-9.668 9.668-9.668 5.33 0 9.668 4.337 9.668 9.668zM25.78 32.227h6.77c1.497 7.346 8.007 12.89 15.789 12.89 7.781 0 14.292-5.544 15.789-12.89h6.77v9.668c0 12.557-10.12 22.773-22.56 22.773-5.577 0-10.688-2.055-14.63-5.454a3.19 3.19 0 0 0-.2-.175 22.819 22.819 0 0 1-7.728-17.145v-9.667zm-3.22 51.777a3.226 3.226 0 0 1 3.222 3.223 3.226 3.226 0 0 1-3.222 3.222 3.226 3.226 0 0 1-3.223-3.222 3.226 3.226 0 0 1 3.223-3.223zm67.675 19.551H6.445V87.227c0-8.712 5.049-16.666 12.89-20.399v11.285c-3.75 1.33-6.444 4.912-6.444 9.114 0 5.33 4.337 9.667 9.668 9.667 5.33 0 9.668-4.337 9.668-9.667 0-4.202-2.695-7.784-6.446-9.114V64.89a23.06 23.06 0 0 1 4.452-.189c4.966 4.01 11.263 6.411 18.107 6.411 5.958 0 11.501-1.82 16.113-4.936v5.26c-7.346 1.498-12.89 8.008-12.89 15.79v3.222a3.223 3.223 0 0 0 0 6.445h6.445a3.223 3.223 0 0 0 0-6.445v-3.222c0-5.331 4.337-9.668 9.668-9.668 5.33 0 9.668 4.337 9.668 9.668v3.222a3.223 3.223 0 0 0 0 6.445h6.445a3.223 3.223 0 0 0 0-6.445v-3.222c0-7.782-5.545-14.292-12.89-15.79V64.89c11.126 1.57 19.335 11.214 19.335 22.336v16.328z"/></svg></svg>