<svg width="40" height="40" fill="none" xmlns="http://www.w3.org/2000/svg">
    <path fill-rule="evenodd" clip-rule="evenodd" d="M20 0C8.956 0 0 8.956 0 20s8.956 20 20 20 20-8.956 20-20S31.044 0 20 0zm11.415 24.735c-.055 1.222-.25 2.057-.534 2.788a5.872 5.872 0 0 1-3.358 3.358c-.73.284-1.566.478-2.788.534-1.225.056-1.616.07-4.735.07s-3.51-.014-4.735-.07c-1.222-.056-2.057-.25-2.787-.534a5.626 5.626 0 0 1-2.035-1.324 5.628 5.628 0 0 1-1.324-2.034c-.284-.73-.478-1.566-.534-2.788-.056-1.225-.07-1.616-.07-4.735s.014-3.51.07-4.735c.055-1.222.25-2.057.533-2.788.289-.766.741-1.46 1.325-2.034a5.625 5.625 0 0 1 2.034-1.324c.731-.284 1.566-.478 2.788-.534 1.225-.056 1.616-.07 4.735-.07s3.51.014 4.735.07c1.222.056 2.057.25 2.788.533a5.63 5.63 0 0 1 2.034 1.325 5.626 5.626 0 0 1 1.324 2.034c.285.731.479 1.566.534 2.788.056 1.225.07 1.616.07 4.735s-.014 3.51-.07 4.735zm-2.52-11.44a3.575 3.575 0 0 0-.863-1.327 3.573 3.573 0 0 0-1.326-.863c-.407-.158-1.018-.346-2.142-.397-1.217-.056-1.582-.068-4.662-.068-3.081 0-3.446.012-4.662.067-1.125.052-1.736.24-2.142.398a3.57 3.57 0 0 0-1.327.863 3.577 3.577 0 0 0-.863 1.326c-.158.407-.346 1.018-.397 2.143-.056 1.216-.068 1.58-.068 4.662 0 3.08.012 3.445.068 4.662.051 1.125.239 1.735.397 2.142.185.5.48.954.863 1.326.372.383.825.678 1.326.863.407.158 1.018.346 2.143.398 1.216.055 1.58.067 4.661.067 3.081 0 3.446-.012 4.662-.067 1.125-.052 1.736-.24 2.143-.398a3.82 3.82 0 0 0 2.19-2.19c.157-.406.345-1.017.396-2.141.056-1.217.068-1.582.068-4.662 0-3.081-.012-3.446-.067-4.662-.052-1.125-.24-1.736-.398-2.143zm-8.993 12.728a5.924 5.924 0 1 1-.001-11.849 5.924 5.924 0 0 1 0 11.849zm4.773-12.083a1.385 1.385 0 1 0 2.77 0 1.385 1.385 0 0 0-2.77 0zM23.843 20a3.842 3.842 0 1 1-7.684 0 3.842 3.842 0 0 1 7.684 0z" fill="#C3B9B5"/>
</svg>
