<svg width="324" height="90" fill="none" xmlns="http://www.w3.org/2000/svg">
    <path d="M113.36 68.7h3.14c.76 0 1.34.16 1.74.48.48.387.72.907.72 1.56 0 .72-.3 1.273-.9 1.66.413.107.76.293 1.04.56.44.427.66.96.66 1.6 0 .8-.287 1.427-.86 1.88-.493.373-1.147.56-1.96.56h-3.58v-8.3zm1.44 3.38h1.52c.387 0 .693-.08.92-.24.267-.2.4-.487.4-.86a.95.95 0 0 0-.4-.8c-.2-.133-.587-.2-1.16-.2h-1.28v2.1zm0 3.64h1.78c.613 0 1.047-.093 1.3-.28.32-.24.48-.547.48-.92 0-.4-.14-.713-.42-.94-.253-.2-.687-.3-1.3-.3h-1.84v2.44zm13.314-1.5l1.2.66c-.28.533-.62.98-1.02 1.34-.76.68-1.68 1.02-2.76 1.02-1.12 0-2.087-.36-2.9-1.08-.8-.733-1.2-1.82-1.2-3.26 0-1.267.36-2.313 1.08-3.14.733-.84 1.713-1.26 2.94-1.26 1.386 0 2.433.507 3.14 1.52.56.8.82 1.84.78 3.12h-6.46c.013.84.273 1.52.78 2.04.506.52 1.126.78 1.86.78.653 0 1.22-.2 1.7-.6.373-.32.66-.7.86-1.14zm-5.1-2.28h4.88c-.12-.653-.407-1.173-.86-1.56-.44-.4-.967-.6-1.58-.6-.6 0-1.134.207-1.6.62-.454.4-.734.913-.84 1.54zm14.009-1.92h-2.6V77h-1.44v-6.98h-2.6V68.7h6.64v1.32zm7.477 4.2l1.2.66c-.28.533-.62.98-1.02 1.34-.76.68-1.68 1.02-2.76 1.02-1.12 0-2.086-.36-2.9-1.08-.8-.733-1.2-1.82-1.2-3.26 0-1.267.36-2.313 1.08-3.14.734-.84 1.714-1.26 2.94-1.26 1.387 0 2.434.507 3.14 1.52.56.8.82 1.84.78 3.12h-6.46c.014.84.274 1.52.78 2.04.507.52 1.127.78 1.86.78.654 0 1.22-.2 1.7-.6.374-.32.66-.7.86-1.14zm-5.1-2.28h4.88c-.12-.653-.406-1.173-.86-1.56-.44-.4-.966-.6-1.58-.6-.6 0-1.133.207-1.6.62-.453.4-.733.913-.84 1.54zm10.009 3.9v5.76h-1.44V68.7h1.44v1.16c.734-.907 1.68-1.36 2.84-1.36 1.24 0 2.22.44 2.94 1.32.734.867 1.1 1.893 1.1 3.08 0 1.2-.36 2.227-1.08 3.08-.72.84-1.686 1.26-2.9 1.26-1.213 0-2.18-.467-2.9-1.4zm2.7.12c.814 0 1.467-.293 1.96-.88.494-.6.74-1.327.74-2.18 0-.96-.273-1.72-.82-2.28-.546-.56-1.18-.84-1.9-.84s-1.36.28-1.92.84c-.56.56-.84 1.313-.84 2.26 0 .867.254 1.6.76 2.2.52.587 1.194.88 2.02.88zm6.388-7.26h1.44v5.48l5.68-6.12V77h-1.44v-5.54l-5.68 6.12V68.7zm9.843 8.3v-8.3h1.44v3.4h3.92v-3.4h1.44V77h-1.44v-3.58h-3.92V77h-1.44zm15.872-7.12V68.7h1.44V77h-1.44v-1.16c-.72.933-1.666 1.4-2.84 1.4-1.12 0-2.073-.387-2.86-1.16-.786-.773-1.18-1.853-1.18-3.24 0-1.36.387-2.42 1.16-3.18.787-.773 1.747-1.16 2.88-1.16 1.2 0 2.147.46 2.84 1.38zm-2.68-.1a2.61 2.61 0 0 0-1.94.82c-.52.533-.78 1.28-.78 2.24 0 .92.24 1.673.72 2.26.494.573 1.16.86 2 .86.84 0 1.507-.3 2-.9.507-.6.76-1.333.76-2.2 0-.987-.28-1.747-.84-2.28-.56-.533-1.2-.8-1.92-.8zm8.288 6.06v5.76h-1.44V68.7h1.44v1.16c.733-.907 1.68-1.36 2.84-1.36 1.24 0 2.22.44 2.94 1.32.733.867 1.1 1.893 1.1 3.08 0 1.2-.36 2.227-1.08 3.08-.72.84-1.687 1.26-2.9 1.26-1.214 0-2.18-.467-2.9-1.4zm2.7.12c.813 0 1.466-.293 1.96-.88.493-.6.74-1.327.74-2.18 0-.96-.274-1.72-.82-2.28-.547-.56-1.18-.84-1.9-.84s-1.36.28-1.92.84c-.56.56-.84 1.313-.84 2.26 0 .867.253 1.6.76 2.2.52.587 1.193.88 2.02.88zm6.387 1.04v-8.3h1.44v3.4h3.92v-3.4h1.44V77h-1.44v-3.58h-3.92V77h-1.44zm15.872-7.12V68.7h1.44V77h-1.44v-1.16c-.72.933-1.667 1.4-2.84 1.4-1.12 0-2.074-.387-2.86-1.16-.787-.773-1.18-1.853-1.18-3.24 0-1.36.386-2.42 1.16-3.18.786-.773 1.746-1.16 2.88-1.16 1.2 0 2.146.46 2.84 1.38zm-2.68-.1c-.76 0-1.407.273-1.94.82-.52.533-.78 1.28-.78 2.24 0 .92.24 1.673.72 2.26.493.573 1.16.86 2 .86.84 0 1.506-.3 2-.9.506-.6.76-1.333.76-2.2 0-.987-.28-1.747-.84-2.28-.56-.533-1.2-.8-1.92-.8zm5.887 7.22l2.58-3.42c-.08 0-.193-.013-.34-.04a3.854 3.854 0 0 1-.6-.2 1.93 1.93 0 0 1-.66-.42c-.44-.413-.66-.967-.66-1.66 0-.787.247-1.407.74-1.86.493-.467 1.307-.7 2.44-.7h2.9V77h-1.44v-3.34h-.88l-2.36 3.34h-1.72zm4.96-4.54v-2.48h-1.34c-.627 0-1.06.073-1.3.22-.347.227-.52.567-.52 1.02 0 .453.173.787.52 1 .253.16.68.24 1.28.24h1.36zm8.832-3.76h1.44v3.4l3.36-3.4h1.76l-3.6 3.7 4.04 4.6h-1.88l-3.24-3.64-.44.42V77h-1.44v-8.3zm14.932 0V77h-1.44v-6.98h-2.96v3.74c0 1.08-.213 1.88-.64 2.4-.48.587-1.146.88-2 .88-.106 0-.253-.013-.44-.04v-1.32c.134.027.24.04.32.04.467 0 .814-.18 1.04-.54.187-.293.28-.767.28-1.42V68.7h5.84zm2.724 0h1.44v5.48l5.68-6.12V77h-1.44v-5.54l-5.68 6.12V68.7zm9.844 8.3v-8.3h1.44v3.4h3.92v-3.4h1.44V77h-1.44v-3.58h-3.92V77h-1.44zm9.512-8.3h1.44v5.48l5.68-6.12V77h-1.44v-5.54l-5.68 6.12V68.7zm9.843 0h1.44v3.4l3.36-3.4h1.76l-3.6 3.7 4.04 4.6h-1.88l-3.24-3.64-.44.42V77h-1.44v-8.3zm14.798 1.18V68.7h1.44V77h-1.44v-1.16c-.72.933-1.667 1.4-2.84 1.4-1.12 0-2.073-.387-2.86-1.16-.787-.773-1.18-1.853-1.18-3.24 0-1.36.387-2.42 1.16-3.18.787-.773 1.747-1.16 2.88-1.16 1.2 0 2.147.46 2.84 1.38zm-2.68-.1c-.76 0-1.407.273-1.94.82-.52.533-.78 1.28-.78 2.24 0 .92.24 1.673.72 2.26.493.573 1.16.86 2 .86.84 0 1.507-.3 2-.9.507-.6.76-1.333.76-2.2 0-.987-.28-1.747-.84-2.28-.56-.533-1.2-.8-1.92-.8zM113.404 45v-2.356c1.619 0 2.84-.42 3.662-1.257.822-.847 1.501-1.958 2.038-3.333.18-.374.31-.659.391-.854.212-.472.379-.871.501-1.197l10.608-26h3.051l11.89 27.795c.708 1.603 1.514 2.811 2.417 3.625.911.814 2.043 1.221 3.393 1.221V45h-17.7v-2.356h2.491c.537 0 .996-.114 1.379-.342.382-.228.574-.561.574-1 0-.391-.183-1.01-.55-1.856l-1.55-3.54h-13.147l-.952 2.539c-.269.757-.403 1.375-.403 1.855 0 1.563 1.184 2.344 3.552 2.344h1.453V45h-13.098zm10.449-11.45h11.096l-5.652-13.147h-.048l-5.396 13.147zm30.176-11.353h12.451v2.307h-.501c-1.131 0-1.696.5-1.696 1.502v11.389h.146l7.105-11.694v-.147c0-.7-.57-1.05-1.709-1.05h-.501v-2.307h12.451v2.307h-1.794c-1.131 0-1.697.5-1.697 1.502v15.198c0 1 .566 1.501 1.697 1.501h1.794V45h-12.451v-2.295h.501c1.139 0 1.709-.5 1.709-1.501V30.095h-.11l-7.141 10.95v.159c0 1 .565 1.501 1.696 1.501h.501V45h-12.451v-2.295h1.794c1.14 0 1.709-.5 1.709-1.501V26.006c0-1.001-.569-1.502-1.709-1.502h-1.794v-2.307zm13.855-3.65c-2.035 0-3.837-.451-5.408-1.355-1.562-.911-2.344-2.14-2.344-3.686 0-.936.253-1.668.757-2.197.513-.537 1.241-.806 2.185-.806.798 0 1.412.24 1.843.72.44.472.66 1.046.66 1.721 0 .48-.135.932-.403 1.355a3.653 3.653 0 0 1-.305.415c-.147.171-.265.33-.354.476a.756.756 0 0 0-.135.415c0 .285.245.582.733.892.488.3 1.412.451 2.771.451 2.327 0 3.491-.447 3.491-1.343a.838.838 0 0 0-.122-.451 1.87 1.87 0 0 0-.293-.403c-.114-.138-.24-.289-.378-.452-.236-.325-.354-.777-.354-1.355 0-.984.435-1.717 1.306-2.197.488-.163.936-.244 1.342-.244.822 0 1.486.268 1.99.806.505.537.757 1.27.757 2.197 0 1.107-.391 2.043-1.172 2.808-.781.756-1.774 1.318-2.978 1.684-1.205.366-2.401.55-3.589.55zm39.05-8.203h1.245c-.252 3.166-1.139 5.184-2.661 6.055-1.522.863-3.332 1.314-5.432 1.355-2.637.049-4.724.236-6.262.561-1.53.318-2.836 1.1-3.919 2.344-1.082 1.245-1.758 3.158-2.026 5.738h.305c.269-.367.484-.684.647-.953a9.227 9.227 0 0 1 3.418-3.003c1.408-.724 2.954-1.086 4.639-1.086 2.026 0 3.943.476 5.749 1.428 1.807.944 3.255 2.32 4.346 4.126 1.099 1.807 1.648 3.919 1.648 6.336-.041 2.409-.554 4.57-1.538 6.482-.985 1.912-2.372 3.414-4.163 4.504-1.782 1.082-3.829 1.623-6.14 1.623-1.717 0-3.455-.39-5.212-1.171-1.75-.79-3.256-2.23-4.517-4.322-1.253-2.1-1.88-4.935-1.88-8.508 0-4.468.586-8.036 1.758-10.706 1.18-2.669 2.669-4.585 4.468-5.75 1.798-1.17 3.487-1.887 5.066-2.148 1.587-.26 3.589-.443 6.006-.549.862-.04 1.489-.101 1.879-.183.391-.09.778-.289 1.16-.598.391-.31.863-.834 1.416-1.575zm-9.949 33.154c1.311-.089 2.279-.532 2.906-1.33.634-.798 1.033-1.782 1.196-2.954.163-1.172.244-2.71.244-4.614v-1.197c0-2.767-.13-4.72-.391-5.86-.301-1.317-.813-2.286-1.538-2.904-.716-.627-1.489-.94-2.319-.94-1.831 0-3.056.757-3.674 2.27-.619 1.506-.928 3.45-.928 5.835v2.99c0 1.791.098 3.297.293 4.518.195 1.22.622 2.225 1.282 3.015.667.78 1.644 1.172 2.929 1.172zm15.052-9.9c0-2.27.537-4.341 1.611-6.213 1.074-1.88 2.519-3.353 4.333-4.419a11.397 11.397 0 0 1 5.909-1.611c1.424 0 2.84.268 4.248.806a11.924 11.924 0 0 1 3.845 2.38c1.147 1.05 2.059 2.348 2.734 3.894.684 1.538 1.026 3.26 1.026 5.164 0 2.514-.582 4.703-1.746 6.567-1.156 1.864-2.645 3.28-4.468 4.248-1.823.96-3.703 1.44-5.639 1.44a11.52 11.52 0 0 1-4.541-.915 12.051 12.051 0 0 1-3.809-2.6 12.15 12.15 0 0 1-2.588-3.93c-.61-1.506-.915-3.11-.915-4.81zm7.299 0c0 1.97.106 3.67.318 5.103.22 1.424.663 2.58 1.33 3.467.676.887 1.644 1.33 2.906 1.33 1.92 0 3.157-.94 3.711-2.82.561-1.887.842-4.247.842-7.08 0-2.888-.293-5.26-.879-7.116-.586-1.855-1.811-2.783-3.674-2.783-1.254 0-2.218.451-2.893 1.355-.676.903-1.123 2.075-1.343 3.515-.212 1.433-.318 3.11-.318 5.03zm23.951-11.4h22.851v2.306h-1.794c-1.14 0-1.709.5-1.709 1.502v15.198c0 1 .569 1.501 1.709 1.501h1.794V45h-13.745v-2.295h1.795c1.131 0 1.696-.5 1.696-1.501V27.349c0-1.27-.171-2.08-.512-2.43-.342-.35-1.018-.524-2.027-.524-.838 0-1.465.13-1.88.39-.407.26-.712.802-.915 1.624-.196.814-.318 2.079-.366 3.796-.196 5.095-.493 8.492-.892 10.193-.838 3.638-2.604 5.456-5.297 5.456-1.286 0-2.34-.236-3.162-.707-.814-.464-1.4-1.046-1.758-1.746-.358-.708-.537-1.424-.537-2.149 0-1.163.33-2.111.989-2.844.659-.74 1.481-1.11 2.466-1.11.748 0 1.424.243 2.026.732.61.488.916 1.196.916 2.124 0 .228-.066.545-.196.952-.114.31-.264.557-.451.745-.196.39-.293.675-.293.854 0 .195.215.293.647.293 1.098 0 1.879-.948 2.343-2.844.35-1.424.586-3.32.708-5.689.131-2.376.196-4.313.196-5.81 0-1.343-.175-2.368-.525-3.076-.35-.716-1.144-1.075-2.381-1.075h-1.696v-2.307zm25.83 0h12.451v2.306h-.501c-1.131 0-1.696.5-1.696 1.502v11.389h.146l7.105-11.694v-.147c0-.7-.57-1.05-1.709-1.05h-.501v-2.307h12.451v2.307h-1.794c-1.131 0-1.697.5-1.697 1.502v15.198c0 1 .566 1.501 1.697 1.501h1.794V45h-12.451v-2.295h.501c1.139 0 1.709-.5 1.709-1.501V30.095h-.11l-7.141 10.95v.159c0 1 .565 1.501 1.696 1.501h.501V45h-12.451v-2.295h1.794c1.139 0 1.709-.5 1.709-1.501V26.006c0-1.001-.57-1.502-1.709-1.502h-1.794v-2.307zm30.859 0h22.351v9.057h-2.002c-.008-1.082-.281-2.149-.818-3.198-.537-1.05-1.204-1.909-2.002-2.576-.797-.676-1.558-1.017-2.282-1.025h-.257c-.203 0-.329.024-.378.073-.041.049-.061.207-.061.476v16.199c0 1 .565 1.501 1.697 1.501h1.794V45h-13.745v-2.295h1.794c1.14 0 1.709-.5 1.709-1.501v-16.2c0-.365-.134-.548-.402-.548h-.306c-.716.048-1.473.402-2.27 1.062-.798.659-1.465 1.51-2.002 2.55-.537 1.042-.81 2.104-.818 3.187h-2.002v-9.058z" fill="white"/>
    <path fill-rule="evenodd" clip-rule="evenodd" d="M45 0C20.147 0 0 20.147 0 45s20.147 45 45 45 45-20.147 45-45S69.853 0 45 0zM13.792 55.034c.622-.176.248-1.042-.711-.511-.664.367-1.16.996-1.07 1.764.296 2.56 2.452 2.563 4.317 2.566.14 0 .28 0 .416.002a6.493 6.493 0 0 0-.08.838c-.028.524-.06 1.106-.235 1.54-.314.781-.854 1.177-1.095 1.353a2.89 2.89 0 0 0-.077.057c-.138.11-.46 1.114-.636 1.663-.049.154-.087.272-.106.326-.089.244.15 1.346.279 1.527.13.182.722.252.804.175.068-.064.074-.075.031-.161l-.031-.063a1.703 1.703 0 0 1-.19-.585c-.042-.28.203-1.214.278-1.417.044-.119.488-.272.967-.437.335-.116.687-.238.934-.358.32-.157.63-.361.85-.507.19-.127.315-.21.321-.177.014.07-.04 1.2-.081 1.451-.041.251.408.67.844 1.047.2.173.312.355.405.508.11.18.195.32.372.357.327.07.804 0 .994-.042a.332.332 0 0 1 .186.02c.081.027.143.047.21-.09.108-.223-.082-.404-.246-.516-.053-.036-.132-.077-.222-.123-.186-.096-.416-.215-.554-.365a11.844 11.844 0 0 0-.08-.086c-.204-.22-.472-.507-.424-.654.02-.06.099-.165.197-.296.176-.233.414-.548.484-.834.109-.447.163-.754.163-.754s.75.056 1.405.224c.654.167 1.907.153 1.907.153s-.19.335-.327.586l-.035.065c-.15.27-.416.754-.278 1.023.15.294.803 1.48 1.158 1.619.26.103.484.077.665.056.065-.007.125-.014.18-.014.204 0 .326-.056.217-.251a.483.483 0 0 0-.305-.245l-.063-.02a1.844 1.844 0 0 0-.06-.02c-.105-.03-.214-.063-.294-.204-.095-.167-.177-.6-.177-.865 0-.182.33-.537.633-.863.137-.148.268-.29.362-.407.3-.376.395-.6.395-.6s.095.81.204 1.103c.11.293.817.879 1.267 1.2.276.197.408.42.5.576.059.098.101.17.154.191.136.056.572.147.75.09.176-.055.32-.166.156-.348-.108-.12-.244-.208-.362-.285a2.035 2.035 0 0 1-.163-.113c-.129-.104-.98-1.332-1.062-1.862-.082-.53-.11-.851-.04-1.172.067-.321.122-.405.122-.405l.042-.042c.122-.12.47-.46.632-.586.198-.154 1.247-.321 1.471-.188.046.026.084.053.119.077.135.093.212.145.44.034.236-.115.443-.34.547-.454l.052-.055a.263.263 0 0 1 .067-.053c.012-.006.024-.013.05-.034.057-.05.067-.06.054-.119a1.804 1.804 0 0 0-.096-.189c-.113-.21-.289-.537-.316-.697-.013-.07-.016-.118-.02-.157-.006-.09-.009-.126-.107-.265-.083-.118-.314-.318-.485-.466-.116-.1-.205-.176-.2-.186l.003-.004c.022-.039.151-.268.151-.349 0-.083-.528.056-.528.056s.089-.118.068-.286c-.02-.167-.06-.261-.088-.265-.027-.003-.399.258-.511.39-.113.133-.16.186-.177.19a.848.848 0 0 0-.032.01c-.173.063-.994.362-1.515.355-.46-.005-1.142-.112-1.69-.197-.143-.023-.276-.043-.394-.06-.153-.023-.418-.08-.75-.153-.912-.198-2.33-.507-3.318-.496-1.349.014-2.658.067-2.792.126-.672.17-3.381.525-4.368.265-1.375-.362-1.807-2.242-.432-2.632zm53.455 5.843L49.965 19h-8.88L26.163 55.369l.194-.133.113-.078c.118-.081.33-.219.58-.38.628-.41 1.495-.973 1.695-1.173.28-.28.827-1.223 1.046-1.975.22-.751.78-1.795.947-2.071l.018-.03c.163-.271.36-.6.37-.811.005-.138.105-.347.22-.589a7.71 7.71 0 0 0 .205-.454c.084-.212.146-.495.197-.727.05-.235.09-.418.131-.423.082-.01.293.45.402.722.109.271.37.858.414.946.04.081.215.126.367.165l.04.01c.077.02.22.093.378.172.168.085.35.177.485.222.26.087.323.146.438.26.05.05.093.114.139.182.057.085.119.178.208.261.16.15.554.232.88.297.173.034.386.116.592.195.184.07.36.139.5.17.293.065.259.162.2.318-.058.156-.234.44-.375.601a1.904 1.904 0 0 0-.092.118c-.095.128-.196.263-.467.412-.31.17-.565.178-.804.184a7.288 7.288 0 0 0-.107.004c-.101.005-.215.022-.335.04-.197.031-.41.064-.607.044a1.892 1.892 0 0 0-.483.011 2.993 2.993 0 0 1-.178.018c-.164.012-.192.052-.228.105a.394.394 0 0 1-.047.059c-.08.082-.253.517-.291 1.158-.012.205-.033.447-.053.694-.044.526-.09 1.073-.065 1.332.023.249.136.592.27.996.07.214.146.445.217.687.156.532.13.977.11 1.323-.007.111-.013.212-.012.302.003.344-.168.804-.302 1.161l-.03.083-.203.526c-.43 1.107-1.411 3.637-1.905 5.063l8.826-.002v-1.43c-3.545-.132-5.317-1.285-5.317-3.456 0-.753.155-1.529.465-2.327l2.393-6.115h15.587l3.191 7.678c.177.42.266.875.266 1.362 0 1.773-2.016 2.726-6.049 2.858v1.43H72v-1.43h-.266c-2.15 0-3.645-1.019-4.487-3.057zm-28.915-11.5l6.514-16.817 6.947 16.817h-13.46z" fill="white"/>
</svg>
