<svg width="40" height="40" fill="none" xmlns="http://www.w3.org/2000/svg">
    <path fill-rule="evenodd" clip-rule="evenodd" d="M40 20c0 11.046-8.954 20-20 20S0 31.046 0 20 8.954 0 20 0s20 8.954 20 20zm-19.725 8.937H18.72s-3.43.209-6.449-2.97C8.98 22.499 6.07 15.617 6.07 15.617s-.167-.45.015-.669c.205-.245.762-.26.762-.26l3.715-.025s.35.059.601.245c.207.153.322.44.322.44s.6 1.536 1.396 2.925c1.552 2.712 2.275 3.306 2.802 3.015.768-.424.537-3.834.537-3.834s.015-1.238-.386-1.789c-.31-.427-.896-.552-1.154-.587-.209-.028.134-.519.579-.74.668-.33 1.85-.35 3.244-.335 1.087.011 1.4.08 1.825.184.985.24.955 1.012.888 2.677-.02.497-.042 1.074-.042 1.74 0 .15-.005.31-.01.475-.022.852-.049 1.828.506 2.19.285.187.98.029 2.722-2.96.825-1.418 1.444-3.083 1.444-3.083s.135-.297.345-.425c.215-.13.505-.09.505-.09l3.909-.024s1.175-.142 1.365.394c.2.563-.44 1.877-2.036 4.03-1.518 2.046-2.255 2.797-2.185 3.463.051.484.53.924 1.448 1.785 1.924 1.806 2.437 2.755 2.559 2.98l.022.04c.861 1.445-.955 1.558-.955 1.558l-3.472.05s-.746.149-1.728-.534c-.514-.356-1.016-.938-1.494-1.493-.731-.847-1.407-1.63-1.984-1.446-.968.31-.937 2.42-.937 2.42s.007.45-.214.69c-.24.261-.71.313-.71.313z" fill="#C3B9B5"/>
</svg>
